<?xml version="1.0" encoding="UTF-8"?>
<svg id="Layer_2" data-name="Layer 2" xmlns="http://www.w3.org/2000/svg" width="561.78" height="124.49" viewBox="0 0 561.78 124.49">
  <defs>
    <style>
      .cls-1 {
        fill: #fff200;
      }
    </style>
  </defs>
  <g id="Layer_1-2" data-name="Layer 1">
    <g>
      <path class="cls-1" d="M101.27,0c-10.35,0-19.42,1.67-27.22,5.01C66.24,1.67,57.17,0,46.82,0H0v122.62h46.82c10.34,0,19.41-1.73,27.22-5.18,7.81,3.45,16.89,5.18,27.22,5.18h46.82V0h-46.82ZM122.43,101.38h-18.1c-7.65,0-14.09-1.53-19.33-4.59-4.64-2.71-8.29-6.58-10.95-11.6h0s0,0,0,0c0,0,0,0,0,0h0c-2.66,5.02-6.31,8.89-10.95,11.6-5.24,3.06-11.68,4.59-19.33,4.59h-18.1V21.24h18.1c7.48,0,13.85,1.52,19.12,4.55,4.73,2.72,8.44,6.6,11.16,11.62h0s0,0,0,0c0,0,0,0,0,0h0c2.72-5.02,6.44-8.9,11.16-11.62,5.27-3.03,11.64-4.55,19.12-4.55h18.1v80.13Z"/>
      <g>
        <path class="cls-1" d="M172.79,122.62V.02h25.66v101.44h53.61v21.16h-79.27Z"/>
        <path class="cls-1" d="M294.88,124.49c-9.29,0-17.28-1.91-23.96-5.73-6.68-3.82-11.84-9.27-15.46-16.36-3.62-7.08-5.44-15.46-5.44-25.15v-.08c0-9.69,1.81-18.08,5.44-25.19,3.62-7.11,8.71-12.6,15.25-16.48,6.54-3.88,14.26-5.82,23.15-5.82s16.58,1.88,23.07,5.65c6.48,3.77,11.5,9.08,15.04,15.93,3.54,6.85,5.31,14.87,5.31,24.04v7.73h-75.02v-15.72h63.3l-11.81,14.7v-9.6c0-5.32-.82-9.78-2.46-13.38-1.64-3.6-3.92-6.3-6.84-8.11-2.92-1.81-6.3-2.72-10.15-2.72s-7.26.93-10.24,2.8c-2.97,1.87-5.3,4.6-6.97,8.2-1.67,3.6-2.51,8-2.51,13.21v9.69c0,4.98.83,9.26,2.51,12.83s4.06,6.3,7.18,8.2c3.11,1.9,6.83,2.85,11.13,2.85,3.4,0,6.34-.54,8.84-1.61,2.49-1.08,4.53-2.43,6.12-4.08,1.58-1.64,2.66-3.31,3.23-5.01l.17-.51h22.77l-.25.93c-.68,3.34-2.01,6.71-3.99,10.11-1.98,3.4-4.66,6.51-8.03,9.35-3.37,2.83-7.48,5.1-12.32,6.8-4.84,1.7-10.52,2.55-17.03,2.55Z"/>
        <path class="cls-1" d="M366.69,124.06c-6.06,0-11.4-1.18-16.02-3.53-4.62-2.35-8.21-5.61-10.79-9.77-2.58-4.16-3.87-8.91-3.87-14.23v-.17c0-5.55,1.39-10.29,4.16-14.23,2.77-3.94,6.81-7.04,12.11-9.3,5.29-2.26,11.71-3.65,19.24-4.16l35.51-2.21v15.46l-31.78,2.12c-4.76.28-8.38,1.39-10.88,3.31-2.49,1.93-3.74,4.5-3.74,7.73v.17c0,3.34,1.27,5.96,3.82,7.86s5.98,2.85,10.28,2.85c3.68,0,6.98-.72,9.9-2.17,2.92-1.45,5.21-3.43,6.88-5.95,1.67-2.52,2.51-5.34,2.51-8.45v-27.7c0-4.02-1.27-7.19-3.82-9.52-2.55-2.32-6.26-3.48-11.13-3.48s-8.33.95-11.04,2.85c-2.72,1.9-4.39,4.32-5.01,7.26l-.17.76h-22.77l.08-1.02c.51-5.61,2.39-10.59,5.65-14.95,3.26-4.36,7.79-7.77,13.59-10.24,5.8-2.46,12.7-3.7,20.69-3.7s14.7,1.26,20.48,3.78,10.27,6.07,13.47,10.66,4.8,9.94,4.8,16.06v62.45h-24.81v-13.51h-.51c-1.76,3.06-3.96,5.72-6.63,7.99-2.66,2.27-5.71,3.99-9.13,5.18-3.43,1.19-7.12,1.78-11.09,1.78Z"/>
        <path class="cls-1" d="M424.38,122.62V31.54h24.81v15.89h.51c1.36-5.61,3.82-9.97,7.39-13.08,3.57-3.11,8.01-4.67,13.34-4.67,1.36,0,2.66.08,3.91.25,1.25.17,2.32.4,3.23.68v21.92c-1.02-.45-2.32-.81-3.91-1.06-1.59-.26-3.29-.38-5.1-.38-4.08,0-7.56.79-10.45,2.38-2.89,1.59-5.1,3.91-6.63,6.97s-2.29,6.8-2.29,11.21v50.98h-24.81Z"/>
        <path class="cls-1" d="M477.24,122.62V31.54h24.81v14.95h.51c2.38-5.21,5.89-9.32,10.54-12.32,4.64-3,10.39-4.5,17.25-4.5,10.03,0,17.77,3.02,23.24,9.05,5.47,6.03,8.2,14.4,8.2,25.11v58.79h-24.81v-53.61c0-5.95-1.4-10.56-4.21-13.85-2.8-3.28-6.98-4.93-12.53-4.93-3.68,0-6.88.85-9.6,2.55s-4.83,4.05-6.33,7.05c-1.5,3-2.25,6.49-2.25,10.45v52.34h-24.81Z"/>
      </g>
    </g>
  </g>
</svg>