<?xml version="1.0" encoding="UTF-8"?>
<svg id="Layer_2" data-name="Layer 2" xmlns="http://www.w3.org/2000/svg" width="618.87" height="124.49" viewBox="0 0 618.87 124.49">
  <defs>
    <style>
      .cls-1 {
        fill: #231f20;
      }
    </style>
  </defs>
  <g id="Layer_1-2" data-name="Layer 1">
    <g>
      <path class="cls-1" d="M101.27,0c-10.35,0-19.42,1.67-27.22,5.01C66.24,1.67,57.17,0,46.82,0H0v122.62h46.82c10.34,0,19.41-1.73,27.22-5.18,7.81,3.45,16.89,5.18,27.22,5.18h46.82V0h-46.82ZM122.43,101.38h-18.1c-7.65,0-14.09-1.53-19.33-4.59-4.64-2.71-8.29-6.58-10.95-11.6h0s0,0,0,0c0,0,0,0,0,0h0c-2.66,5.02-6.31,8.89-10.95,11.6-5.24,3.06-11.68,4.59-19.33,4.59h-18.1V21.24h18.1c7.48,0,13.85,1.52,19.12,4.55,4.73,2.72,8.44,6.6,11.16,11.62h0s0,0,0,0c0,0,0,0,0,0h0c2.72-5.02,6.44-8.9,11.16-11.62,5.27-3.03,11.64-4.55,19.12-4.55h18.1v80.13Z"/>
      <g>
        <path class="cls-1" d="M198.7,122.62L166.16.02h26.68l19.37,87.85h.51L235.32.02h22.51l22.6,87.85h.51L300.31.02h26.68l-32.54,122.6h-25.06l-22.51-82.07h-.51l-22.6,82.07h-25.06Z"/>
        <path class="cls-1" d="M359.79,124.49c-9.23,0-17.22-1.88-23.96-5.65-6.74-3.77-11.97-9.2-15.67-16.31-3.71-7.11-5.57-15.59-5.57-25.45v-.17c0-9.8,1.88-18.22,5.65-25.28,3.77-7.05,9.02-12.48,15.76-16.27,6.74-3.79,14.64-5.69,23.7-5.69s17.06,1.88,23.83,5.65c6.77,3.77,12.02,9.18,15.76,16.23,3.74,7.05,5.61,15.51,5.61,25.36v.17c0,9.91-1.86,18.41-5.56,25.49-3.71,7.08-8.94,12.5-15.68,16.27-6.74,3.77-14.7,5.65-23.87,5.65ZM359.88,105.03c4.02,0,7.5-1.09,10.45-3.27,2.94-2.18,5.23-5.35,6.84-9.52,1.62-4.16,2.42-9.22,2.42-15.17v-.17c0-5.83-.82-10.83-2.46-15-1.64-4.16-3.95-7.33-6.92-9.52-2.97-2.18-6.47-3.27-10.49-3.27s-7.43,1.1-10.41,3.31c-2.97,2.21-5.28,5.38-6.92,9.52-1.64,4.13-2.46,9.12-2.46,14.95v.17c0,5.95.81,11,2.42,15.17,1.62,4.16,3.92,7.33,6.92,9.52,3,2.18,6.54,3.27,10.62,3.27Z"/>
        <path class="cls-1" d="M407.21,122.62V31.54h24.81v15.89h.51c1.36-5.61,3.82-9.97,7.39-13.08,3.57-3.11,8.01-4.67,13.34-4.67,1.36,0,2.66.08,3.91.25,1.25.17,2.32.4,3.23.68v21.92c-1.02-.45-2.32-.81-3.91-1.06-1.59-.26-3.29-.38-5.1-.38-4.08,0-7.56.79-10.45,2.38-2.89,1.59-5.1,3.91-6.63,6.97s-2.29,6.8-2.29,11.21v50.98h-24.81Z"/>
        <path class="cls-1" d="M460.83,122.62V.02h24.89v122.6h-24.89ZM482.67,95.86v-27.87h3.57l30.76-36.45h28.12l-42.06,47.92h-5.52l-14.87,16.4ZM518.18,122.62l-28.12-40.19,15.72-18.95,41.04,59.13h-28.63Z"/>
        <path class="cls-1" d="M579.02,124.49c-8.38,0-15.53-1.22-21.45-3.65s-10.52-5.82-13.81-10.15c-3.29-4.33-5.27-9.36-5.95-15.08l-.08-.76h24.21l.17.76c.79,3.57,2.58,6.34,5.35,8.33,2.77,1.98,6.63,2.97,11.55,2.97,3.17,0,5.86-.38,8.07-1.15,2.21-.76,3.92-1.85,5.14-3.27,1.22-1.42,1.83-3.11,1.83-5.1v-.08c0-2.43-.88-4.39-2.63-5.86-1.76-1.47-4.87-2.69-9.35-3.65l-15.46-3.31c-5.89-1.25-10.82-3.04-14.78-5.4-3.96-2.35-6.94-5.27-8.92-8.75-1.98-3.48-2.97-7.49-2.97-12.02v-.08c0-5.83,1.57-10.88,4.71-15.12,3.14-4.25,7.59-7.55,13.34-9.9,5.75-2.35,12.47-3.53,20.18-3.53s14.88,1.29,20.52,3.87c5.64,2.58,9.97,6.05,13,10.41,3.03,4.36,4.63,9.21,4.8,14.53v.85h-22.85l-.08-.68c-.4-3.23-1.91-5.93-4.55-8.11-2.63-2.18-6.24-3.27-10.83-3.27-2.83,0-5.3.4-7.39,1.19-2.1.79-3.71,1.9-4.84,3.31-1.13,1.42-1.7,3.12-1.7,5.1v.08c0,1.53.38,2.9,1.15,4.12.77,1.22,2.05,2.28,3.87,3.19,1.81.91,4.25,1.7,7.31,2.38l15.46,3.31c9.57,1.98,16.44,4.96,20.6,8.92,4.16,3.96,6.25,9.29,6.25,15.97v.08c0,5.95-1.7,11.13-5.1,15.55s-8.09,7.86-14.06,10.32c-5.98,2.46-12.87,3.7-20.69,3.7Z"/>
      </g>
    </g>
  </g>
</svg>