<?xml version="1.0" encoding="UTF-8"?>
<svg id="Layer_2" data-name="Layer 2" xmlns="http://www.w3.org/2000/svg" width="724.5" height="158.37" viewBox="0 0 724.5 158.37">
  <defs>
    <style>
      .cls-1 {
        fill: #231f20;
      }
    </style>
  </defs>
  <g id="Layer_1-2" data-name="Layer 1">
    <g>
      <path class="cls-1" d="M101.27,6.25c-10.35,0-19.42,1.67-27.22,5.01-7.8-3.33-16.87-5.01-27.22-5.01H0v122.62h46.82c10.34,0,19.41-1.73,27.22-5.18,7.81,3.45,16.89,5.18,27.22,5.18h46.82V6.25h-46.82ZM122.43,107.62h-18.1c-7.65,0-14.09-1.53-19.33-4.59-4.64-2.71-8.29-6.58-10.95-11.6h0s0,0,0,0c0,0,0,0,0,0h0c-2.66,5.02-6.31,8.89-10.95,11.6-5.24,3.06-11.68,4.59-19.33,4.59h-18.1V27.49h18.1c7.48,0,13.85,1.52,19.12,4.55,4.73,2.72,8.44,6.6,11.16,11.62h0s0,0,0,0c0,0,0,0,0,0h0c2.72-5.02,6.44-8.9,11.16-11.62,5.27-3.03,11.64-4.55,19.12-4.55h18.1v80.13Z"/>
      <g>
        <path class="cls-1" d="M231.92,130.75c-9.18,0-17.4-1.44-24.68-4.33-7.28-2.89-13.48-7.08-18.61-12.57-5.13-5.49-9.05-12.19-11.77-20.09-2.72-7.9-4.08-16.84-4.08-26.8v-.09c0-13.14,2.38-24.4,7.14-33.77,4.76-9.37,11.53-16.58,20.31-21.62,8.78-5.04,19.14-7.56,31.1-7.56,9.86,0,18.55,1.76,26.08,5.27,7.53,3.51,13.66,8.28,18.39,14.32,4.73,6.03,7.77,12.9,9.13,20.6l.25,1.28h-25.83l-.25-.94c-2.04-5.89-5.44-10.49-10.2-13.8-4.76-3.31-10.59-4.97-17.5-4.97s-12.53,1.61-17.38,4.84c-4.84,3.23-8.55,7.9-11.13,14.02-2.58,6.12-3.87,13.51-3.87,22.17v.09c0,6.57.76,12.47,2.29,17.71,1.53,5.24,3.75,9.67,6.67,13.29,2.92,3.62,6.43,6.4,10.54,8.33,4.11,1.93,8.71,2.89,13.81,2.89,5.55,0,10.45-1.03,14.7-3.1,4.25-2.07,7.62-4.98,10.11-8.75,2.49-3.77,3.82-8.17,3.99-13.21l.08-1.7h-27.95v-19.2h53.02v14.1c0,8.33-1.23,15.8-3.7,22.43-2.46,6.63-6.03,12.26-10.71,16.91-4.67,4.64-10.38,8.19-17.12,10.62-6.74,2.43-14.36,3.65-22.85,3.65Z"/>
        <path class="cls-1" d="M290.64,128.63V37.55h24.81v15.89h.51c1.36-5.61,3.82-9.97,7.39-13.08,3.57-3.11,8.01-4.67,13.34-4.67,1.36,0,2.66.08,3.91.25,1.25.17,2.32.4,3.23.68v21.92c-1.02-.45-2.32-.81-3.91-1.06-1.59-.26-3.29-.38-5.1-.38-4.08,0-7.56.79-10.45,2.38s-5.1,3.91-6.63,6.97-2.29,6.8-2.29,11.21v50.98h-24.81Z"/>
        <path class="cls-1" d="M368.47,130.07c-6.06,0-11.4-1.18-16.02-3.53s-8.21-5.61-10.79-9.77c-2.58-4.16-3.87-8.91-3.87-14.23v-.17c0-5.55,1.39-10.29,4.16-14.23,2.77-3.94,6.81-7.04,12.11-9.3,5.29-2.27,11.71-3.65,19.24-4.16l35.51-2.21v15.46l-31.78,2.12c-4.76.28-8.38,1.39-10.88,3.31-2.49,1.93-3.74,4.5-3.74,7.73v.17c0,3.34,1.27,5.96,3.82,7.86,2.55,1.9,5.98,2.85,10.28,2.85,3.68,0,6.98-.72,9.9-2.17,2.92-1.45,5.21-3.43,6.88-5.95,1.67-2.52,2.51-5.34,2.51-8.46v-27.7c0-4.02-1.27-7.19-3.82-9.52-2.55-2.32-6.26-3.48-11.13-3.48s-8.33.95-11.04,2.85c-2.72,1.9-4.39,4.32-5.01,7.26l-.17.77h-22.77l.08-1.02c.51-5.61,2.39-10.59,5.65-14.95,3.26-4.36,7.79-7.77,13.59-10.24,5.8-2.46,12.7-3.7,20.69-3.7s14.7,1.26,20.48,3.78c5.78,2.52,10.27,6.07,13.47,10.66s4.8,9.94,4.8,16.06v62.45h-24.81v-13.51h-.51c-1.76,3.06-3.96,5.72-6.63,7.99-2.66,2.27-5.71,3.99-9.13,5.18-3.43,1.19-7.12,1.78-11.09,1.78Z"/>
        <path class="cls-1" d="M426.17,158.37V37.55h24.81v15.89h.59c1.64-3.68,3.81-6.85,6.5-9.52,2.69-2.66,5.83-4.7,9.43-6.12,3.6-1.41,7.55-2.12,11.85-2.12,7.7,0,14.33,1.88,19.88,5.65,5.55,3.77,9.83,9.19,12.83,16.27,3,7.08,4.5,15.55,4.5,25.4v.09c0,9.86-1.49,18.32-4.46,25.4-2.97,7.08-7.21,12.52-12.7,16.31-5.49,3.79-12.06,5.69-19.71,5.69-4.3,0-8.3-.71-11.98-2.12-3.68-1.41-6.88-3.41-9.6-5.99-2.72-2.58-4.93-5.68-6.63-9.3h-.51v45.29h-24.81ZM471.2,109.94c4.13,0,7.7-1.09,10.71-3.27,3-2.18,5.31-5.28,6.92-9.3,1.61-4.02,2.42-8.78,2.42-14.27v-.09c0-5.55-.82-10.32-2.46-14.31-1.64-3.99-3.96-7.07-6.97-9.22-3-2.15-6.54-3.23-10.62-3.23s-7.56,1.09-10.62,3.27c-3.06,2.18-5.44,5.28-7.14,9.3s-2.55,8.78-2.55,14.27v.08c0,5.44.86,10.17,2.59,14.19,1.73,4.02,4.11,7.12,7.14,9.3,3.03,2.18,6.55,3.27,10.58,3.27Z"/>
        <path class="cls-1" d="M519.55,128.63V6.03h24.81v47.24h.51c2.38-5.66,5.93-10.01,10.66-13.04,4.73-3.03,10.49-4.54,17.29-4.54s12.32,1.46,17.08,4.38c4.76,2.92,8.42,7.04,11,12.36,2.58,5.32,3.87,11.67,3.87,19.03v57.18h-24.89v-52.08c0-6.34-1.5-11.31-4.5-14.91-3-3.6-7.34-5.39-13-5.39-3.62,0-6.78.86-9.47,2.59-2.69,1.73-4.79,4.11-6.29,7.14-1.5,3.03-2.25,6.53-2.25,10.49v52.17h-24.81Z"/>
        <path class="cls-1" d="M623.13,25.91c-3.74,0-6.9-1.29-9.47-3.87-2.58-2.58-3.87-5.62-3.87-9.13s1.29-6.61,3.87-9.13c2.58-2.52,5.74-3.78,9.47-3.78s6.88,1.26,9.43,3.78c2.55,2.52,3.82,5.56,3.82,9.13s-1.27,6.56-3.82,9.13c-2.55,2.58-5.69,3.87-9.43,3.87ZM610.64,128.63V37.55h24.89v91.08h-24.89Z"/>
        <path class="cls-1" d="M683.29,130.5c-9.23,0-17.22-1.93-23.96-5.78-6.74-3.85-11.94-9.33-15.59-16.44-3.65-7.11-5.48-15.54-5.48-25.28v-.08c0-9.74,1.84-18.14,5.52-25.19,3.68-7.05,8.88-12.49,15.59-16.31,6.71-3.82,14.6-5.73,23.66-5.73,8.27,0,15.43,1.54,21.5,4.63,6.06,3.09,10.8,7.26,14.23,12.53,3.43,5.27,5.31,11.19,5.65,17.76v.6h-23.11l-.08-.77c-.74-4.3-2.61-7.93-5.61-10.88-3-2.94-7.08-4.42-12.23-4.42-4.02,0-7.52,1.12-10.49,3.36-2.97,2.24-5.27,5.44-6.88,9.6-1.61,4.16-2.42,9.13-2.42,14.91v.09c0,5.95.81,11,2.42,15.17,1.62,4.16,3.91,7.33,6.88,9.52,2.97,2.18,6.5,3.27,10.58,3.27,4.98,0,8.99-1.4,12.02-4.21,3.03-2.8,4.94-6.5,5.73-11.09l.17-.76h23.11v.51c-.4,6.63-2.32,12.57-5.78,17.84-3.46,5.27-8.2,9.45-14.23,12.53-6.03,3.09-13.1,4.63-21.2,4.63Z"/>
      </g>
    </g>
  </g>
</svg>