<?xml version="1.0" encoding="UTF-8"?>
<svg id="Layer_2" data-name="Layer 2" xmlns="http://www.w3.org/2000/svg" width="337.72" height="122.63" viewBox="0 0 337.72 122.63">
  <defs>
    <style>
      .cls-1 {
        fill: #231f20;
      }
    </style>
  </defs>
  <g id="Layer_1-2" data-name="Layer 1">
    <g>
      <path class="cls-1" d="M101.27,0c-10.35,0-19.42,1.67-27.22,5.01C66.24,1.67,57.17,0,46.82,0H0v122.62h46.82c10.34,0,19.41-1.73,27.22-5.18,7.81,3.45,16.89,5.18,27.22,5.18h46.82V0h-46.82ZM122.43,101.38h-18.1c-7.65,0-14.09-1.53-19.33-4.59-4.64-2.71-8.29-6.58-10.95-11.6h0s0,0,0,0c0,0,0,0,0,0h0c-2.66,5.02-6.31,8.89-10.95,11.6-5.24,3.06-11.68,4.59-19.33,4.59h-18.1V21.24h18.1c7.48,0,13.85,1.52,19.12,4.55,4.73,2.72,8.44,6.6,11.16,11.62h0s0,0,0,0c0,0,0,0,0,0h0c2.72-5.02,6.44-8.9,11.16-11.62,5.27-3.03,11.64-4.55,19.12-4.55h18.1v80.13Z"/>
      <g>
        <path class="cls-1" d="M164.97,122.62L207.7.02h22.68v23.79h-7.82l-30.67,98.81h-26.93ZM187.99,92.88l6.29-19.2h57.18l6.29,19.2h-69.75ZM253.67,122.62l-30.59-98.81V.02h14.87l42.74,122.6h-27.02Z"/>
        <path class="cls-1" d="M281.29,122.62V.02h24.81v122.6h-24.81Z"/>
        <path class="cls-1" d="M325.31,24.27c-3.5,0-6.46-1.21-8.87-3.62-2.41-2.41-3.62-5.26-3.62-8.55s1.21-6.19,3.62-8.55c2.41-2.36,5.37-3.54,8.87-3.54s6.44,1.18,8.83,3.54c2.39,2.36,3.58,5.21,3.58,8.55s-1.19,6.14-3.58,8.55c-2.39,2.41-5.33,3.62-8.83,3.62Z"/>
        <rect class="cls-1" x="312.82" y="31.54" width="24.9" height="91.09"/>
      </g>
    </g>
  </g>
</svg>