<?xml version="1.0" encoding="UTF-8"?>
<svg id="Layer_2" data-name="Layer 2" xmlns="http://www.w3.org/2000/svg" width="715.57" height="154.23" viewBox="0 0 715.57 154.23">
  <defs>
    <style>
      .cls-1 {
        fill: #231f20;
      }
    </style>
  </defs>
  <g id="Layer_1-2" data-name="Layer 1">
    <g>
      <path class="cls-1" d="M101.27,0c-10.35,0-19.42,1.67-27.22,5.01C66.24,1.67,57.17,0,46.82,0H0v122.62h46.82c10.34,0,19.41-1.73,27.22-5.18,7.81,3.45,16.89,5.18,27.22,5.18h46.82V0h-46.82ZM122.43,101.38h-18.1c-7.65,0-14.09-1.53-19.33-4.59-4.64-2.71-8.29-6.58-10.95-11.6h0s0,0,0,0c0,0,0,0,0,0h0c-2.66,5.02-6.31,8.89-10.95,11.6-5.24,3.06-11.68,4.59-19.33,4.59h-18.1V21.24h18.1c7.48,0,13.85,1.52,19.12,4.55,4.73,2.72,8.44,6.6,11.16,11.62h0s0,0,0,0c0,0,0,0,0,0h0c2.72-5.02,6.44-8.9,11.16-11.62,5.27-3.03,11.64-4.55,19.12-4.55h18.1v80.13Z"/>
      <g>
        <path class="cls-1" d="M164.97,122.62L207.7.02h22.68v23.79h-7.82l-30.67,98.81h-26.93ZM187.99,92.88l6.29-19.2h57.18l6.29,19.2h-69.75ZM253.67,122.62l-30.59-98.81V.02h14.87l42.73,122.6h-27.02Z"/>
        <path class="cls-1" d="M319.86,154.23c-8.33,0-15.59-1.15-21.79-3.44-6.2-2.29-11.13-5.39-14.78-9.3-3.65-3.91-5.88-8.3-6.67-13.17l-.17-.76h24.21l.25.59c1.02,2.21,3.14,4.16,6.37,5.86s7.42,2.55,12.57,2.55c6.4,0,11.27-1.53,14.61-4.59,3.34-3.06,5.01-7.11,5.01-12.15v-14.02h-.51c-1.59,3.17-3.75,5.92-6.5,8.24-2.75,2.32-5.95,4.12-9.6,5.4-3.65,1.27-7.66,1.91-12.02,1.91-7.59,0-14.16-1.81-19.71-5.44-5.55-3.62-9.81-8.82-12.79-15.59-2.97-6.77-4.46-14.85-4.46-24.26v-.08c0-9.69,1.52-17.98,4.55-24.89,3.03-6.91,7.33-12.21,12.91-15.89,5.58-3.68,12.19-5.52,19.84-5.52,4.3,0,8.24.71,11.81,2.12,3.57,1.42,6.7,3.43,9.39,6.03,2.69,2.61,4.86,5.69,6.5,9.26h.59v-15.55h24.81v88.53c0,6.74-1.8,12.67-5.39,17.8-3.6,5.13-8.72,9.13-15.38,12.02-6.66,2.89-14.54,4.33-23.66,4.33ZM319.44,103.16c4.08,0,7.62-1.08,10.62-3.23,3-2.15,5.34-5.21,7.01-9.18,1.67-3.96,2.51-8.67,2.51-14.1v-.08c0-5.38-.84-10.04-2.51-13.98-1.67-3.94-4.02-6.98-7.05-9.13-3.03-2.15-6.56-3.23-10.58-3.23s-7.65,1.06-10.71,3.19c-3.06,2.12-5.41,5.16-7.05,9.09-1.64,3.94-2.46,8.62-2.46,14.06v.08c0,5.44.82,10.14,2.46,14.1,1.64,3.96,3.99,7.02,7.05,9.18,3.06,2.15,6.63,3.23,10.71,3.23Z"/>
        <path class="cls-1" d="M411.55,124.49c-9.29,0-17.28-1.91-23.96-5.73-6.68-3.82-11.84-9.27-15.46-16.36-3.62-7.08-5.44-15.46-5.44-25.15v-.08c0-9.69,1.81-18.08,5.44-25.19,3.62-7.11,8.71-12.6,15.25-16.48,6.54-3.88,14.26-5.82,23.15-5.82s16.58,1.88,23.07,5.65c6.48,3.77,11.5,9.08,15.04,15.93,3.54,6.85,5.31,14.87,5.31,24.04v7.73h-75.02v-15.72h63.29l-11.81,14.7v-9.6c0-5.32-.82-9.78-2.46-13.38-1.64-3.6-3.92-6.3-6.84-8.11-2.92-1.81-6.3-2.72-10.15-2.72s-7.26.93-10.24,2.8c-2.97,1.87-5.29,4.6-6.97,8.2-1.67,3.6-2.51,8-2.51,13.21v9.69c0,4.98.84,9.26,2.51,12.83,1.67,3.57,4.06,6.3,7.18,8.2s6.83,2.85,11.13,2.85c3.4,0,6.34-.54,8.84-1.61,2.49-1.08,4.53-2.43,6.12-4.08,1.58-1.64,2.66-3.31,3.23-5.01l.17-.51h22.77l-.26.93c-.68,3.34-2.01,6.71-3.99,10.11-1.98,3.4-4.66,6.51-8.03,9.35-3.37,2.83-7.48,5.1-12.32,6.8-4.84,1.7-10.52,2.55-17.03,2.55Z"/>
        <path class="cls-1" d="M456.25,122.62V31.54h24.81v14.95h.51c2.38-5.21,5.89-9.32,10.54-12.32,4.64-3,10.39-4.5,17.25-4.5,10.03,0,17.77,3.02,23.24,9.05,5.47,6.03,8.2,14.4,8.2,25.11v58.79h-24.81v-53.61c0-5.95-1.4-10.56-4.21-13.85-2.8-3.28-6.98-4.93-12.53-4.93-3.68,0-6.88.85-9.6,2.55s-4.83,4.05-6.33,7.05c-1.5,3-2.25,6.49-2.25,10.45v52.34h-24.81Z"/>
        <path class="cls-1" d="M587.69,124.49c-9.23,0-17.22-1.92-23.96-5.78-6.74-3.85-11.94-9.33-15.59-16.44-3.65-7.11-5.48-15.53-5.48-25.28v-.08c0-9.74,1.84-18.14,5.52-25.19,3.68-7.05,8.88-12.49,15.59-16.31,6.71-3.82,14.6-5.73,23.66-5.73,8.27,0,15.43,1.54,21.5,4.63,6.06,3.09,10.8,7.26,14.23,12.53,3.43,5.27,5.31,11.19,5.65,17.76v.59h-23.11l-.09-.76c-.74-4.3-2.61-7.93-5.61-10.88-3-2.94-7.08-4.42-12.23-4.42-4.02,0-7.52,1.12-10.49,3.36-2.97,2.24-5.27,5.44-6.88,9.6-1.61,4.16-2.42,9.13-2.42,14.91v.08c0,5.95.81,11,2.42,15.17,1.62,4.16,3.91,7.33,6.88,9.52,2.97,2.18,6.5,3.27,10.58,3.27,4.98,0,8.99-1.4,12.02-4.21,3.03-2.8,4.94-6.5,5.73-11.09l.17-.76h23.11v.51c-.4,6.63-2.32,12.57-5.78,17.84s-8.2,9.45-14.23,12.53c-6.03,3.09-13.1,4.63-21.2,4.63Z"/>
        <path class="cls-1" d="M644.71,152.61c-2.44,0-4.79-.11-7.05-.34-2.27-.23-4.13-.48-5.61-.76v-18.44c.85.17,2,.35,3.44.55,1.44.2,3.07.3,4.88.3,3.74,0,6.68-.62,8.84-1.87,2.15-1.25,3.77-3.4,4.84-6.46l1.02-2.97-32.12-91.08h27.27l20.56,76.12-3.31-4.93h4.67l-3.31,4.93,20.48-76.12h26.25l-31.27,92.69c-2.38,7.14-5.37,12.79-8.96,16.95-3.6,4.16-7.92,7.11-12.96,8.84-5.04,1.73-10.93,2.59-17.67,2.59Z"/>
      </g>
    </g>
  </g>
</svg>