<?xml version="1.0" encoding="UTF-8"?>
<svg id="Layer_2" data-name="Layer 2" xmlns="http://www.w3.org/2000/svg" width="564.26" height="124.06" viewBox="0 0 564.26 124.06">
  <defs>
    <style>
      .cls-1 {
        fill: #231f20;
      }
    </style>
  </defs>
  <g id="Layer_1-2" data-name="Layer 1">
    <g>
      <g>
        <path class="cls-1" d="M172.9,122.62V0h46.82c12.29,0,22.79,2.35,31.48,7.05,8.7,4.7,15.37,11.57,20.01,20.61,4.64,9.04,6.97,20.04,6.97,33.01v.17c0,12.97-2.31,24.08-6.92,33.31-4.62,9.23-11.29,16.29-20.01,21.16-8.72,4.87-19.23,7.31-31.53,7.31h-46.82ZM198.57,101.38h18.1c7.65,0,14.09-1.53,19.33-4.59,5.24-3.06,9.22-7.59,11.94-13.6,2.72-6,4.08-13.43,4.08-22.26v-.17c0-8.5-1.39-15.69-4.16-21.58-2.78-5.89-6.8-10.35-12.07-13.38-5.27-3.03-11.64-4.55-19.12-4.55h-18.1v80.13Z"/>
        <path class="cls-1" d="M308.88,124.06c-6.06,0-11.4-1.18-16.02-3.53-4.62-2.35-8.21-5.61-10.79-9.77-2.58-4.16-3.87-8.91-3.87-14.23v-.17c0-5.55,1.39-10.3,4.16-14.23,2.77-3.94,6.81-7.04,12.11-9.3,5.3-2.27,11.71-3.65,19.25-4.16l35.52-2.21v15.47l-31.78,2.12c-4.76.28-8.38,1.39-10.88,3.31-2.49,1.93-3.74,4.5-3.74,7.73v.17c0,3.34,1.27,5.96,3.82,7.86,2.55,1.9,5.98,2.85,10.28,2.85,3.68,0,6.98-.72,9.9-2.17,2.92-1.45,5.21-3.43,6.88-5.95,1.67-2.52,2.51-5.34,2.51-8.46v-27.7c0-4.02-1.27-7.19-3.82-9.52-2.55-2.32-6.26-3.48-11.13-3.48s-8.33.95-11.05,2.85c-2.72,1.9-4.39,4.32-5.01,7.27l-.17.76h-22.77l.08-1.02c.51-5.61,2.39-10.59,5.65-14.96,3.26-4.36,7.79-7.77,13.6-10.24,5.81-2.46,12.7-3.7,20.69-3.7s14.7,1.26,20.48,3.78c5.78,2.52,10.27,6.08,13.47,10.66,3.2,4.59,4.8,9.94,4.8,16.06v62.46h-24.81v-13.51h-.51c-1.76,3.06-3.97,5.72-6.63,7.99-2.66,2.27-5.71,3.99-9.14,5.18-3.43,1.19-7.12,1.78-11.09,1.78Z"/>
        <path class="cls-1" d="M367.18,122.62V0h24.81v122.62h-24.81Z"/>
        <path class="cls-1" d="M411.2,24.26c-3.5,0-6.46-1.21-8.87-3.62-2.41-2.41-3.62-5.26-3.62-8.55s1.21-6.19,3.62-8.55c2.41-2.36,5.37-3.54,8.87-3.54s6.44,1.18,8.83,3.54c2.39,2.36,3.58,5.21,3.58,8.55s-1.19,6.14-3.58,8.55c-2.39,2.41-5.33,3.62-8.83,3.62Z"/>
        <rect class="cls-1" x="398.72" y="31.53" width="24.9" height="91.09"/>
        <path class="cls-1" d="M429.74,122.62V31.53h24.81v15.3h.51c1.87-5.21,5.06-9.38,9.56-12.49,4.5-3.12,9.81-4.67,15.93-4.67,4.25,0,8.07.74,11.47,2.21,3.4,1.47,6.27,3.6,8.63,6.37,2.35,2.78,4.01,6.18,4.97,10.2h.51c1.36-3.85,3.41-7.18,6.16-9.98,2.75-2.8,6-4.97,9.77-6.5,3.77-1.53,7.89-2.29,12.36-2.29,5.95,0,11.16,1.27,15.64,3.82,4.47,2.55,7.96,6.12,10.45,10.71,2.49,4.59,3.74,9.97,3.74,16.15v62.29h-24.81v-56c0-3.57-.58-6.56-1.74-8.97-1.16-2.41-2.83-4.25-5.01-5.52-2.18-1.28-4.89-1.91-8.11-1.91s-5.85.72-8.2,2.17c-2.35,1.44-4.18,3.44-5.48,5.99-1.3,2.55-1.95,5.52-1.95,8.92v55.32h-23.88v-56.76c0-3.29-.59-6.09-1.78-8.41-1.19-2.32-2.88-4.11-5.06-5.35-2.18-1.25-4.8-1.87-7.86-1.87s-5.86.75-8.24,2.25c-2.38,1.5-4.24,3.56-5.57,6.16-1.33,2.61-2,5.61-2,9.01v54.98h-24.81Z"/>
      </g>
      <path class="cls-1" d="M101.27,0c-10.35,0-19.42,1.67-27.22,5.01C66.24,1.67,57.17,0,46.82,0H0v122.62h46.82c10.34,0,19.41-1.73,27.22-5.18,7.81,3.45,16.89,5.18,27.22,5.18h46.82V0h-46.82ZM122.43,101.38h-18.1c-7.65,0-14.09-1.53-19.33-4.59-4.64-2.71-8.29-6.58-10.95-11.6h0s0,0,0,0c0,0,0,0,0,0h0c-2.66,5.02-6.31,8.89-10.95,11.6-5.24,3.06-11.68,4.59-19.33,4.59h-18.1V21.24h18.1c7.48,0,13.85,1.52,19.12,4.55,4.73,2.72,8.44,6.6,11.16,11.62h0s0,0,0,0c0,0,0,0,0,0h0c2.72-5.02,6.44-8.9,11.16-11.62,5.27-3.03,11.64-4.55,19.12-4.55h18.1v80.13Z"/>
    </g>
  </g>
</svg>