<?xml version="1.0" encoding="UTF-8"?>
<svg id="Layer_2" data-name="Layer 2" xmlns="http://www.w3.org/2000/svg" width="678.96" height="124.48" viewBox="0 0 678.96 124.48">
  <defs>
    <style>
      .cls-1 {
        fill: #fff200;
      }
    </style>
  </defs>
  <g id="Layer_1-2" data-name="Layer 1">
    <g>
      <g>
        <path class="cls-1" d="M213.74,122.61L172.79.01h28.38l28.04,96.35h.51L257.66.01h28.46l-41.04,122.6h-31.35Z"/>
        <path class="cls-1" d="M353.69,124.48c-8.38,0-15.53-1.22-21.45-3.65s-10.52-5.82-13.81-10.15c-3.29-4.33-5.27-9.36-5.95-15.08l-.08-.76h24.21l.17.76c.79,3.57,2.58,6.34,5.35,8.33,2.77,1.98,6.63,2.97,11.55,2.97,3.17,0,5.86-.38,8.07-1.15,2.21-.76,3.92-1.85,5.14-3.27,1.22-1.42,1.83-3.11,1.83-5.1v-.08c0-2.43-.88-4.39-2.63-5.86-1.76-1.47-4.87-2.69-9.35-3.65l-15.46-3.31c-5.89-1.25-10.82-3.04-14.78-5.4-3.96-2.35-6.94-5.27-8.92-8.75-1.98-3.48-2.97-7.49-2.97-12.02v-.08c0-5.83,1.57-10.88,4.71-15.12,3.14-4.25,7.59-7.55,13.34-9.9,5.75-2.35,12.47-3.53,20.18-3.53s14.88,1.29,20.52,3.87c5.64,2.58,9.97,6.05,13,10.41,3.03,4.36,4.63,9.21,4.8,14.53v.85h-22.85l-.08-.68c-.4-3.23-1.91-5.93-4.55-8.11-2.63-2.18-6.24-3.27-10.83-3.27-2.83,0-5.3.4-7.39,1.19-2.1.79-3.71,1.9-4.84,3.31-1.13,1.42-1.7,3.12-1.7,5.1v.08c0,1.53.38,2.9,1.15,4.12.77,1.22,2.05,2.28,3.87,3.19,1.81.91,4.25,1.7,7.31,2.38l15.46,3.31c9.57,1.98,16.44,4.96,20.6,8.92,4.16,3.96,6.25,9.29,6.25,15.97v.08c0,5.95-1.7,11.13-5.1,15.55s-8.09,7.86-14.06,10.32c-5.98,2.46-12.87,3.7-20.69,3.7Z"/>
        <path class="cls-1" d="M426.25,124.48c-6.63,0-12.29-1.37-16.99-4.12-4.7-2.75-8.27-6.67-10.71-11.77-2.44-5.1-3.65-11.19-3.65-18.27V31.53h24.81v53.61c0,5.95,1.4,10.56,4.21,13.85,2.8,3.29,6.98,4.93,12.53,4.93,2.77,0,5.28-.48,7.52-1.44,2.24-.96,4.15-2.34,5.74-4.12,1.58-1.79,2.8-3.91,3.65-6.37.85-2.46,1.27-5.17,1.27-8.11V31.53h24.81v91.08h-24.81v-15.04h-.59c-1.53,3.46-3.58,6.46-6.16,9.01s-5.66,4.5-9.26,5.86c-3.6,1.36-7.72,2.04-12.36,2.04Z"/>
        <path class="cls-1" d="M512.25,124.05c-6.06,0-11.4-1.18-16.02-3.53-4.62-2.35-8.21-5.61-10.79-9.77-2.58-4.16-3.87-8.91-3.87-14.23v-.17c0-5.55,1.39-10.29,4.16-14.23,2.77-3.94,6.81-7.04,12.11-9.3,5.29-2.26,11.71-3.65,19.24-4.16l35.51-2.21v15.46l-31.78,2.12c-4.76.28-8.38,1.39-10.88,3.31-2.49,1.93-3.74,4.5-3.74,7.73v.17c0,3.34,1.27,5.96,3.82,7.86s5.98,2.85,10.28,2.85c3.68,0,6.98-.72,9.9-2.17,2.92-1.45,5.21-3.43,6.88-5.95,1.67-2.52,2.51-5.34,2.51-8.45v-27.7c0-4.02-1.27-7.19-3.82-9.52-2.55-2.32-6.26-3.48-11.13-3.48s-8.33.95-11.04,2.85c-2.72,1.9-4.39,4.32-5.01,7.26l-.17.76h-22.77l.08-1.02c.51-5.61,2.39-10.59,5.65-14.95,3.26-4.36,7.79-7.77,13.59-10.24,5.8-2.46,12.7-3.7,20.69-3.7s14.7,1.26,20.48,3.78,10.27,6.07,13.47,10.66,4.8,9.94,4.8,16.06v62.45h-24.81v-13.51h-.51c-1.76,3.06-3.96,5.72-6.63,7.99-2.66,2.27-5.71,3.99-9.13,5.18-3.43,1.19-7.12,1.78-11.09,1.78Z"/>
        <path class="cls-1" d="M570.54,122.61V.01h24.81v122.6h-24.81Z"/>
        <path class="cls-1" d="M639.11,124.48c-8.38,0-15.53-1.22-21.45-3.65s-10.52-5.82-13.81-10.15c-3.29-4.33-5.27-9.36-5.95-15.08l-.08-.76h24.21l.17.76c.79,3.57,2.58,6.34,5.35,8.33,2.77,1.98,6.63,2.97,11.55,2.97,3.17,0,5.86-.38,8.07-1.15,2.21-.76,3.92-1.85,5.14-3.27,1.22-1.42,1.83-3.11,1.83-5.1v-.08c0-2.43-.88-4.39-2.63-5.86-1.76-1.47-4.87-2.69-9.35-3.65l-15.46-3.31c-5.89-1.25-10.82-3.04-14.78-5.4-3.96-2.35-6.94-5.27-8.92-8.75-1.98-3.48-2.97-7.49-2.97-12.02v-.08c0-5.83,1.57-10.88,4.71-15.12,3.14-4.25,7.59-7.55,13.34-9.9,5.75-2.35,12.47-3.53,20.18-3.53s14.88,1.29,20.52,3.87c5.64,2.58,9.97,6.05,13,10.41,3.03,4.36,4.63,9.21,4.8,14.53v.85h-22.85l-.08-.68c-.4-3.23-1.91-5.93-4.55-8.11-2.63-2.18-6.24-3.27-10.83-3.27-2.83,0-5.3.4-7.39,1.19-2.1.79-3.71,1.9-4.84,3.31-1.13,1.42-1.7,3.12-1.7,5.1v.08c0,1.53.38,2.9,1.15,4.12.77,1.22,2.05,2.28,3.87,3.19,1.81.91,4.25,1.7,7.31,2.38l15.46,3.31c9.57,1.98,16.44,4.96,20.6,8.92,4.16,3.96,6.25,9.29,6.25,15.97v.08c0,5.95-1.7,11.13-5.1,15.55s-8.09,7.86-14.06,10.32c-5.98,2.46-12.87,3.7-20.69,3.7Z"/>
        <path class="cls-1" d="M297.68,24.26c-3.5,0-6.46-1.21-8.87-3.62-2.41-2.41-3.62-5.26-3.62-8.55s1.21-6.19,3.62-8.55c2.41-2.36,5.37-3.54,8.87-3.54s6.44,1.18,8.83,3.54c2.39,2.36,3.58,5.21,3.58,8.55s-1.19,6.14-3.58,8.55c-2.39,2.41-5.33,3.62-8.83,3.62Z"/>
        <rect class="cls-1" x="285.2" y="31.53" width="24.9" height="91.09"/>
      </g>
      <path class="cls-1" d="M101.27,0C90.92,0,81.85,1.67,74.05,5.01,66.24,1.67,57.17,0,46.82,0H0v122.62h46.82c10.34,0,19.41-1.73,27.22-5.18,7.81,3.45,16.89,5.18,27.22,5.18h46.82V0h-46.82ZM122.43,101.38h-18.1c-7.65,0-14.09-1.53-19.33-4.59-4.64-2.71-8.29-6.58-10.95-11.6h0s0,0,0,0c0,0,0,0,0,0h0c-2.66,5.02-6.31,8.89-10.95,11.6-5.24,3.06-11.68,4.59-19.33,4.59h-18.1V21.24h18.1c7.48,0,13.85,1.52,19.12,4.55,4.73,2.72,8.44,6.6,11.16,11.62h0s0,0,0,0c0,0,0,0,0,0h0c2.72-5.02,6.44-8.9,11.16-11.62,5.27-3.03,11.64-4.55,19.12-4.55h18.1v80.13Z"/>
    </g>
  </g>
</svg>