<?xml version="1.0" encoding="UTF-8"?>
<svg id="Layer_2" data-name="Layer 2" xmlns="http://www.w3.org/2000/svg" width="311.11" height="124.74" viewBox="0 0 311.11 124.74">
  <defs>
    <style>
      .cls-1 {
        fill: #231f20;
      }
    </style>
  </defs>
  <g id="Layer_1-2" data-name="Layer 1">
    <g>
      <path class="cls-1" d="M101.27,0c-10.35,0-19.42,1.67-27.22,5.01C66.24,1.67,57.17,0,46.82,0H0v122.62h46.82c10.34,0,19.41-1.73,27.22-5.18,7.81,3.45,16.89,5.18,27.22,5.18h46.82V0h-46.82ZM122.43,101.38h-18.1c-7.65,0-14.09-1.53-19.33-4.59-4.64-2.71-8.29-6.58-10.95-11.6h0s0,0,0,0c0,0,0,0,0,0h0c-2.66,5.02-6.31,8.89-10.95,11.6-5.24,3.06-11.68,4.59-19.33,4.59h-18.1V21.24h18.1c7.48,0,13.85,1.52,19.12,4.55,4.73,2.72,8.44,6.6,11.16,11.62h0s0,0,0,0c0,0,0,0,0,0h0c2.72-5.02,6.44-8.9,11.16-11.62,5.27-3.03,11.64-4.55,19.12-4.55h18.1v80.13Z"/>
      <g>
        <path class="cls-1" d="M224.19,124.74c-10.48,0-19.57-1.88-27.27-5.65-7.7-3.77-13.65-9.08-17.84-15.93-4.19-6.85-6.29-14.81-6.29-23.87V.02h25.66v76.97c0,5.27,1,9.84,3.02,13.72,2.01,3.88,4.93,6.9,8.75,9.05,3.82,2.15,8.48,3.23,13.98,3.23s10.15-1.08,13.98-3.23c3.82-2.15,6.73-5.17,8.71-9.05,1.98-3.88,2.97-8.45,2.97-13.72V.02h25.66v79.27c0,9.06-2.08,17.01-6.25,23.83-4.16,6.83-10.08,12.14-17.76,15.93-7.68,3.79-16.78,5.69-27.32,5.69Z"/>
        <path class="cls-1" d="M285.45,122.62V.02h25.66v122.6h-25.66Z"/>
      </g>
    </g>
  </g>
</svg>