<?xml version="1.0" encoding="UTF-8"?>
<svg id="Layer_2" data-name="Layer 2" xmlns="http://www.w3.org/2000/svg" width="546.99" height="124.48" viewBox="0 0 546.99 124.48">
  <defs>
    <style>
      .cls-1 {
        fill: #231f20;
      }
    </style>
  </defs>
  <g id="Layer_1-2" data-name="Layer 1">
    <g>
      <path class="cls-1" d="M101.27,0c-10.35,0-19.42,1.67-27.22,5.01C66.24,1.67,57.17,0,46.82,0H0v122.62h46.82c10.34,0,19.41-1.73,27.22-5.18,7.81,3.45,16.89,5.18,27.22,5.18h46.82V0h-46.82ZM122.43,101.38h-18.1c-7.65,0-14.09-1.53-19.33-4.59-4.64-2.71-8.29-6.58-10.95-11.6h0s0,0,0,0c0,0,0,0,0,0h0c-2.66,5.02-6.31,8.89-10.95,11.6-5.24,3.06-11.68,4.59-19.33,4.59h-18.1V21.24h18.1c7.48,0,13.85,1.52,19.12,4.55,4.73,2.72,8.44,6.6,11.16,11.62h0s0,0,0,0c0,0,0,0,0,0h0c2.72-5.02,6.44-8.9,11.16-11.62,5.27-3.03,11.64-4.55,19.12-4.55h18.1v80.13Z"/>
      <g>
        <path class="cls-1" d="M172.79,122.61V.01h25.66v122.6h-25.66Z"/>
        <path class="cls-1" d="M247.9,124.48c-9.23,0-17.22-1.92-23.96-5.78-6.74-3.85-11.94-9.33-15.59-16.44s-5.48-15.53-5.48-25.28v-.08c0-9.74,1.84-18.14,5.52-25.19,3.68-7.05,8.88-12.49,15.59-16.31,6.71-3.82,14.6-5.73,23.66-5.73,8.27,0,15.43,1.54,21.5,4.63,6.06,3.09,10.8,7.26,14.23,12.53,3.43,5.27,5.31,11.19,5.65,17.76v.59h-23.11l-.09-.76c-.74-4.3-2.61-7.93-5.61-10.88-3-2.94-7.08-4.42-12.23-4.42-4.02,0-7.52,1.12-10.49,3.36-2.97,2.24-5.27,5.44-6.88,9.6-1.61,4.16-2.42,9.13-2.42,14.91v.08c0,5.95.81,11,2.42,15.17,1.62,4.16,3.91,7.33,6.88,9.52,2.97,2.18,6.5,3.27,10.58,3.27,4.98,0,8.99-1.4,12.02-4.21,3.03-2.8,4.94-6.5,5.73-11.09l.17-.76h23.11v.51c-.4,6.63-2.32,12.57-5.78,17.84s-8.2,9.45-14.23,12.53c-6.03,3.09-13.1,4.63-21.2,4.63Z"/>
        <path class="cls-1" d="M332.45,124.48c-9.23,0-17.22-1.88-23.96-5.65-6.74-3.77-11.97-9.2-15.67-16.31-3.71-7.11-5.57-15.59-5.57-25.45v-.17c0-9.8,1.88-18.22,5.65-25.28,3.77-7.05,9.02-12.48,15.76-16.27,6.74-3.79,14.64-5.69,23.7-5.69s17.06,1.88,23.83,5.65c6.77,3.77,12.02,9.18,15.76,16.23,3.74,7.05,5.61,15.51,5.61,25.36v.17c0,9.91-1.86,18.41-5.56,25.49-3.71,7.08-8.94,12.5-15.68,16.27-6.74,3.77-14.7,5.65-23.87,5.65ZM332.53,105.02c4.02,0,7.5-1.09,10.45-3.27,2.94-2.18,5.23-5.35,6.84-9.52,1.62-4.16,2.42-9.22,2.42-15.17v-.17c0-5.83-.82-10.83-2.46-15-1.64-4.16-3.95-7.33-6.92-9.52-2.97-2.18-6.47-3.27-10.49-3.27s-7.43,1.1-10.41,3.31c-2.97,2.21-5.28,5.38-6.92,9.52-1.64,4.13-2.46,9.12-2.46,14.95v.17c0,5.95.81,11,2.42,15.17,1.62,4.16,3.92,7.33,6.92,9.52,3,2.18,6.54,3.27,10.62,3.27Z"/>
        <path class="cls-1" d="M379.87,122.61V31.53h24.81v14.95h.51c2.38-5.21,5.89-9.32,10.54-12.32,4.64-3,10.39-4.5,17.25-4.5,10.03,0,17.77,3.02,23.24,9.05,5.47,6.03,8.2,14.4,8.2,25.11v58.79h-24.81v-53.61c0-5.95-1.4-10.56-4.21-13.85-2.8-3.28-6.98-4.93-12.53-4.93-3.68,0-6.88.85-9.6,2.55s-4.83,4.05-6.33,7.05c-1.5,3-2.25,6.49-2.25,10.45v52.34h-24.81Z"/>
        <path class="cls-1" d="M507.15,124.48c-8.38,0-15.53-1.22-21.45-3.65s-10.52-5.82-13.81-10.15c-3.29-4.33-5.27-9.36-5.95-15.08l-.08-.76h24.21l.17.76c.79,3.57,2.58,6.34,5.35,8.33,2.77,1.98,6.63,2.97,11.55,2.97,3.17,0,5.86-.38,8.07-1.15,2.21-.76,3.92-1.85,5.14-3.27,1.22-1.42,1.83-3.11,1.83-5.1v-.08c0-2.43-.88-4.39-2.63-5.86-1.76-1.47-4.87-2.69-9.35-3.65l-15.46-3.31c-5.89-1.25-10.82-3.04-14.78-5.4-3.96-2.35-6.94-5.27-8.92-8.75-1.98-3.48-2.97-7.49-2.97-12.02v-.08c0-5.83,1.57-10.88,4.71-15.12,3.14-4.25,7.59-7.55,13.34-9.9,5.75-2.35,12.47-3.53,20.18-3.53s14.88,1.29,20.52,3.87c5.64,2.58,9.97,6.05,13,10.41,3.03,4.36,4.63,9.21,4.8,14.53v.85h-22.85l-.08-.68c-.4-3.23-1.91-5.93-4.55-8.11-2.63-2.18-6.24-3.27-10.83-3.27-2.83,0-5.3.4-7.39,1.19-2.1.79-3.71,1.9-4.84,3.31-1.13,1.42-1.7,3.12-1.7,5.1v.08c0,1.53.38,2.9,1.15,4.12.77,1.22,2.05,2.28,3.87,3.19,1.81.91,4.25,1.7,7.31,2.38l15.46,3.31c9.57,1.98,16.44,4.96,20.6,8.92,4.16,3.96,6.25,9.29,6.25,15.97v.08c0,5.95-1.7,11.13-5.1,15.55s-8.09,7.86-14.06,10.32c-5.98,2.46-12.87,3.7-20.69,3.7Z"/>
      </g>
    </g>
  </g>
</svg>