<?xml version="1.0" encoding="UTF-8"?>
<svg id="Layer_2" data-name="Layer 2" xmlns="http://www.w3.org/2000/svg" width="731.84" height="160.91" viewBox="0 0 731.84 160.91">
  <g id="Layer_1-2" data-name="Layer 1">
    <g>
      <path d="M325.82,9.15c-11.28-6.1-24.89-9.15-40.83-9.15h-60.73v159.04h60.73c15.94,0,29.57-3.16,40.89-9.48,11.32-6.32,19.97-15.47,25.96-27.44,5.99-11.98,8.98-26.38,8.98-43.2v-.22c0-16.82-3.01-31.1-9.04-42.82-6.03-11.72-14.68-20.63-25.95-26.73ZM326.86,79.02c0,11.46-1.76,21.09-5.29,28.88-3.53,7.79-8.69,13.67-15.48,17.63-6.8,3.97-15.16,5.95-25.07,5.95h-23.47V27.55h23.47c9.7,0,17.97,1.97,24.8,5.9,6.83,3.93,12.05,9.72,15.65,17.36,3.6,7.64,5.4,16.97,5.4,27.99v.22Z"/>
      <path d="M444.58,43.37c-7.49-3.27-16.35-4.9-26.56-4.9s-19.31,1.6-26.84,4.79c-7.53,3.2-13.41,7.62-17.63,13.28-4.23,5.66-6.67,12.12-7.33,19.4l-.11,1.32h29.54l.22-.99c.81-3.82,2.98-6.96,6.5-9.42,3.53-2.46,8.3-3.69,14.33-3.69s11.13,1.51,14.44,4.52c3.31,3.01,4.96,7.13,4.96,12.34v7.22l-29.21,1.82c-9.77.66-18.09,2.46-24.96,5.4-6.87,2.94-12.11,6.96-15.71,12.07-3.6,5.11-5.4,11.26-5.4,18.46v.22c0,6.91,1.67,13.06,5.02,18.46,3.34,5.4,8.01,9.63,14,12.67,5.99,3.05,12.91,4.57,20.78,4.57,5.14,0,9.94-.77,14.38-2.31,4.44-1.54,8.39-3.78,11.85-6.72,3.45-2.94,6.32-6.39,8.6-10.36h.66v17.52h32.18v-81.01c0-7.94-2.08-14.88-6.23-20.83-4.15-5.95-9.97-10.56-17.47-13.83ZM432.85,126.91c-2.17,3.27-5.14,5.84-8.93,7.72-3.78,1.87-8.06,2.81-12.84,2.81-5.58,0-10.03-1.23-13.34-3.69-3.31-2.46-4.96-5.86-4.96-10.19v-.22c0-4.19,1.61-7.53,4.85-10.03,3.23-2.5,7.93-3.93,14.11-4.3l24.36-1.63v8.57c0,4.04-1.09,7.7-3.25,10.97Z"/>
      <rect x="476.23" width="32.18" height="159.04"/>
      <path d="M533.33,0c-4.54,0-8.37,1.53-11.5,4.59-3.13,3.06-4.69,6.76-4.69,11.09s1.56,7.96,4.69,11.09c3.13,3.13,6.96,4.69,11.5,4.69s8.36-1.56,11.45-4.69c3.1-3.13,4.64-6.83,4.64-11.09s-1.55-8.03-4.64-11.09c-3.09-3.06-6.91-4.59-11.45-4.59Z"/>
      <rect x="517.13" y="40.89" width="32.29" height="118.15"/>
      <path d="M726.99,57.31c-3.23-5.95-7.75-10.58-13.56-13.89-5.81-3.31-12.57-4.96-20.28-4.96-5.81,0-11.15.99-16.04,2.98-4.89,1.98-9.11,4.8-12.67,8.43-3.57,3.64-6.23,7.95-7.99,12.95h-.66c-1.25-5.22-3.4-9.62-6.45-13.22-3.05-3.6-6.78-6.35-11.19-8.27-4.41-1.91-9.37-2.87-14.88-2.87-7.94,0-14.82,2.02-20.66,6.06-5.84,4.04-9.97,9.44-12.4,16.2h-.66v-19.84h-32.18v118.15h32.18v-71.31c0-4.41.86-8.3,2.59-11.68,1.73-3.38,4.13-6.04,7.22-7.99,3.09-1.95,6.65-2.92,10.69-2.92s7.37.81,10.19,2.42c2.83,1.62,5.02,3.93,6.56,6.94,1.54,3.01,2.31,6.65,2.31,10.91v73.62h30.97v-71.75c0-4.41.84-8.27,2.54-11.57,1.69-3.31,4.06-5.9,7.11-7.77,3.05-1.87,6.59-2.81,10.64-2.81s7.7.83,10.52,2.48c2.83,1.65,5,4.04,6.5,7.16,1.51,3.12,2.26,7,2.26,11.63v72.63h32.18v-80.79c0-8.01-1.62-14.99-4.85-20.94Z"/>
      <path d="M96.04,6.5C85.92,2.17,74.15,0,60.73,0H0v159.04h60.73c13.41,0,25.17-2.24,35.31-6.71,10.14,4.47,21.9,6.71,35.31,6.71h60.73V0h-60.73c-13.42,0-25.19,2.17-35.31,6.5ZM158.79,27.55v103.93h-23.47c-9.92,0-18.28-1.98-25.07-5.95-6.02-3.51-10.75-8.53-14.2-15.04h0s0,0,0,0c0,0,0,0,0,0h0c-3.45,6.51-8.19,11.53-14.2,15.04-6.8,3.97-15.16,5.95-25.07,5.95h-23.47V27.55h23.47c9.7,0,17.97,1.97,24.8,5.9,6.13,3.53,10.95,8.56,14.48,15.07h0s0,0,0,0h0s0,0,0,0c3.53-6.51,8.35-11.55,14.48-15.07,6.83-3.93,15.1-5.9,24.8-5.9h23.47Z"/>
    </g>
  </g>
</svg>