<?xml version="1.0" encoding="UTF-8"?>
<svg id="Layer_1" data-name="Layer 1" xmlns="http://www.w3.org/2000/svg" width="536" height="396" viewBox="0 0 536 396">
  <defs>
    <style>
      .cls-1 {
        fill: #231f20;
      }

      .cls-2 {
        fill: #fff;
      }
    </style>
  </defs>
  <rect class="cls-1" x="213" y="176" width="110" height="44" rx="16" ry="16"/>
  <g>
    <path class="cls-2" d="M242.7,192.3h4.3c1.5,0,2.6.3,3.3.8.7.5,1.1,1.4,1.1,2.5s-.2,1.3-.6,1.8c-.4.5-.9.8-1.6.9.9.1,1.5.4,2,1,.5.5.7,1.2.7,2s-.4,2-1.1,2.6-1.8.9-3.2.9h-5v-12.5ZM249.1,197.2c.5-.3.7-.8.7-1.5,0-1.3-1-2-2.9-2h-2.8v3.9h2.8c.9,0,1.6-.2,2.1-.5ZM249.7,202.8c.5-.4.7-.9.7-1.5s-.2-1.2-.7-1.5c-.5-.4-1.1-.6-2-.6h-3.5v4.1h3.5c.9,0,1.5-.2,2-.5Z"/>
    <path class="cls-2" d="M255,204.1c-.6-.6-.8-1.5-.8-2.6v-6h1.5v5.6c0,.9.2,1.6.5,2,.3.4.8.6,1.5.6s1.3-.2,1.7-.7c.4-.5.6-1.1.6-2v-5.6h1.5v9.3h-1.4v-1.5c-.3.6-.6,1-1.1,1.3-.5.3-1.1.4-1.7.4s-1.7-.3-2.2-.9Z"/>
    <path class="cls-2" d="M265.5,204.2c-.4-.4-.6-1-.6-1.8v-5.6h-1.4v-1.3h1.4v-2.2h1.5v2.2h3.8v-2.2h1.5v2.2h2.5v1.3h-2.5v5.6c0,.4,0,.7.3.9.2.2.5.3.9.3h1.3v1.3h-1.5c-.8,0-1.5-.2-1.9-.6-.4-.4-.6-1-.6-1.8v-5.6h-3.8v5.6c0,.4,0,.7.3.9s.5.3.9.3h1.3v1.3h-1.5c-.8,0-1.5-.2-1.9-.6Z"/>
    <path class="cls-2" d="M277.4,204.4c-.6-.4-1.1-1-1.5-1.7-.4-.7-.5-1.6-.5-2.6s.2-1.8.5-2.6.9-1.3,1.5-1.7c.6-.4,1.4-.6,2.3-.6s1.6.2,2.2.6c.6.4,1.1,1,1.5,1.7.4.7.5,1.6.5,2.6s-.2,1.8-.5,2.6c-.4.7-.9,1.3-1.5,1.7-.6.4-1.4.6-2.2.6s-1.6-.2-2.3-.6ZM281.7,202.7c.5-.6.7-1.5.7-2.5s-.2-1.9-.7-2.5c-.5-.6-1.1-.9-2-.9s-1.5.3-2,.9-.7,1.5-.7,2.6.2,1.9.7,2.6c.5.6,1.2.9,2,.9s1.5-.3,2-.9Z"/>
    <path class="cls-2" d="M286.1,195.5h1.4v1.7c.3-.6.6-1.1,1.1-1.4.5-.3,1.1-.5,1.8-.5,1,0,1.8.3,2.3,1,.5.7.8,1.5.8,2.6v6h-1.5v-5.6c0-.9-.2-1.5-.5-2-.3-.4-.8-.7-1.5-.7s-1.3.2-1.8.7c-.5.5-.7,1.1-.7,2v5.6h-1.5v-9.3Z"/>
  </g>
</svg>