<?xml version="1.0" encoding="UTF-8"?>
<svg id="Layer_1" data-name="Layer 1" xmlns="http://www.w3.org/2000/svg" width="536" height="396" viewBox="0 0 536 396">
  <defs>
    <style>
      .cls-1 {
        opacity: .5;
        stroke-miterlimit: 10;
        stroke-width: .5px;
      }

      .cls-1, .cls-2 {
        fill: none;
        stroke: #fff;
      }

      .cls-3 {
        fill: #231f20;
      }

      .cls-4 {
        fill: #fff;
      }

      .cls-2 {
        stroke-linecap: round;
        stroke-linejoin: round;
      }
    </style>
  </defs>
  <rect class="cls-3" width="536" height="396"/>
  <path class="cls-4" d="M199.8,195.6h-2.1v-1h.8c.6,0,.9-.1,1.2-.3.2-.2.3-.6.3-1.2h1v9.9h-1.2v-7.4Z"/>
  <path class="cls-4" d="M305,202.4c-.6-.5-.9-1.2-1-2h1.2c0,.5.3.9.7,1.2.4.3.9.4,1.6.4s1.3-.1,1.7-.4c.4-.3.7-.8.7-1.4s-.2-1.1-.6-1.4c-.4-.3-1-.5-1.8-.5h-.8v-1.2h.8c.6,0,1.1-.1,1.5-.4.4-.2.6-.6.6-1.2s-.2-.9-.5-1.2c-.3-.3-.8-.4-1.5-.4-1.3,0-1.9.5-2.1,1.4h-1.3c0-.8.4-1.5,1-1.9.6-.5,1.4-.7,2.3-.7s1.8.2,2.4.7c.6.5.9,1.1.9,2s-.6,1.8-1.7,2.1c.6.2,1.2.5,1.5.9.4.5.6,1,.6,1.6,0,.9-.3,1.7-1,2.2s-1.6.8-2.7.8-1.9-.3-2.5-.8Z"/>
  <g>
    <path class="cls-4" d="M405.7,192.9h1.7l4.9,8.7v-8.7h1.2v9.9h-1.8l-4.8-8.6v8.6h-1.2v-9.9Z"/>
    <path class="cls-4" d="M417.1,202.6c-.5-.3-.9-.8-1.2-1.4-.3-.6-.4-1.3-.4-2.1s.1-1.5.4-2,.7-1,1.2-1.4c.5-.3,1.1-.5,1.8-.5s1.2.2,1.7.5c.5.3.9.7,1.2,1.3.3.6.4,1.3.4,2.1v.4h-5.4c0,.8.2,1.4.6,1.8.4.4.9.6,1.5.6s.9-.1,1.2-.3c.3-.2.5-.5.7-.9h1.3c-.2.8-.6,1.3-1.1,1.7-.6.4-1.2.6-2,.6s-1.3-.2-1.8-.5ZM420.2,196.9c-.3-.3-.8-.5-1.4-.5s-1.1.2-1.4.5c-.4.4-.6.9-.7,1.6h4.1c0-.7-.3-1.2-.6-1.6Z"/>
    <path class="cls-4" d="M425.4,199.1l-2.6-3.6h1.4l1.9,2.8,1.9-2.8h1.4l-2.6,3.6,2.7,3.8h-1.4l-2-3-2.1,3h-1.4l2.7-3.8Z"/>
    <path class="cls-4" d="M432.2,202.4c-.3-.3-.5-.8-.5-1.4v-4.5h-1.1v-1h1.1v-1.7h1.2v1.7h2v1h-2v4.5c0,.3,0,.6.2.7.1.1.4.2.7.2h1.1v1h-1.2c-.7,0-1.2-.2-1.5-.5Z"/>
  </g>
  <g>
    <path class="cls-4" d="M101.1,193h3.6c1.1,0,2,.3,2.6.8.6.5.9,1.3.9,2.2s-.3,1.7-.9,2.3-1.5.8-2.6.8h-2.4v3.9h-1.2v-9.9ZM106.9,196c0-1.2-.8-1.8-2.3-1.8h-2.4v3.7h2.4c1.5,0,2.3-.6,2.3-1.9Z"/>
    <path class="cls-4" d="M109.9,195.5h1v1.4c.3-.9.9-1.4,1.8-1.4h.7v1.1h-.7c-1.1,0-1.7.6-1.7,1.8v4.5h-1.2v-7.4Z"/>
    <path class="cls-4" d="M115.9,202.6c-.5-.3-.9-.8-1.2-1.4-.3-.6-.4-1.3-.4-2.1s.1-1.5.4-2,.7-1,1.2-1.4c.5-.3,1.1-.5,1.8-.5s1.2.2,1.7.5c.5.3.9.7,1.2,1.3.3.6.4,1.3.4,2.1v.4h-5.4c0,.8.2,1.4.6,1.8.4.4.9.6,1.5.6s.9-.1,1.2-.3c.3-.2.5-.5.7-.9h1.3c-.2.8-.6,1.3-1.1,1.7-.6.4-1.2.6-2,.6s-1.3-.2-1.8-.5ZM119.1,196.9c-.3-.3-.8-.5-1.4-.5s-1.1.2-1.4.5c-.4.4-.6.9-.7,1.6h4.1c0-.7-.3-1.2-.6-1.6Z"/>
    <path class="cls-4" d="M121.6,195.5h1.3l2.2,6.2,2.2-6.2h1.3l-2.7,7.4h-1.5l-2.7-7.4Z"/>
    <path class="cls-4" d="M129.9,192.9h1.2v1.4h-1.2v-1.4ZM129.9,195.5h1.2v7.4h-1.2v-7.4Z"/>
    <path class="cls-4" d="M134.5,202.6c-.5-.3-.9-.8-1.2-1.4-.3-.6-.4-1.3-.4-2.1s.1-1.5.4-2.1c.3-.6.7-1,1.2-1.4.5-.3,1.1-.5,1.8-.5s1.3.2,1.8.5c.5.3.9.8,1.2,1.4s.4,1.3.4,2.1-.1,1.5-.4,2.1c-.3.6-.7,1-1.2,1.4-.5.3-1.1.5-1.8.5s-1.3-.2-1.8-.5ZM137.8,201.2c.4-.5.6-1.2.6-2s-.2-1.5-.6-2c-.4-.5-.9-.7-1.6-.7s-1.2.2-1.6.7-.6,1.2-.6,2,.2,1.5.6,2,.9.7,1.6.7,1.2-.2,1.6-.7Z"/>
    <path class="cls-4" d="M141.9,202.3c-.4-.5-.7-1.2-.7-2.1v-4.8h1.2v4.5c0,.7.1,1.2.4,1.6s.7.5,1.2.5,1-.2,1.4-.6c.3-.4.5-.9.5-1.6v-4.4h1.2v7.4h-1.1v-1.2c-.2.4-.5.8-.9,1-.4.2-.8.4-1.4.4s-1.3-.2-1.8-.7Z"/>
    <path class="cls-4" d="M149.6,202.4c-.6-.5-.9-1.1-.9-1.8h1.2c.1.9.8,1.4,2,1.4s.9,0,1.2-.3.4-.4.4-.8,0-.4-.1-.5c0-.1-.3-.2-.5-.3-.3,0-.7-.2-1.2-.3-1-.2-1.8-.5-2.2-.8-.4-.3-.6-.8-.6-1.4s.2-1.2.7-1.6c.5-.4,1.2-.6,2.1-.6s1.5.2,2,.7c.5.4.8,1,.9,1.7h-1.2c0-.3-.3-.7-.6-.9-.3-.2-.7-.4-1.2-.4s-.9.1-1.2.3c-.3.2-.4.5-.4.8s.1.6.4.8c.3.2.7.3,1.4.4.8.1,1.3.3,1.8.5.4.2.7.4.9.7s.3.6.3,1c0,.7-.3,1.2-.8,1.6s-1.2.6-2.1.6-1.7-.2-2.3-.7Z"/>
  </g>
  <path class="cls-2" d="M89.5,194.3l-3.7,3.7,3.7,3.7"/>
  <path class="cls-2" d="M446.5,201.7l3.7-3.7-3.7-3.7"/>
  <path class="cls-4" d="M249.8,201c.2-.6.6-1.1,1.2-1.6.6-.5,1.3-1,2.3-1.5.5-.3.9-.5,1.1-.7.3-.2.5-.4.6-.6.1-.2.2-.5.2-.8,0-.5-.2-.9-.5-1.3-.3-.3-.8-.5-1.5-.5s-1.2.2-1.7.5-.7.9-.8,1.6h-1.3c.1-1.1.5-1.9,1.1-2.4s1.5-.9,2.6-.9,1.3.1,1.7.4c.5.2.9.6,1.1,1,.3.4.4.9.4,1.5s0,1-.3,1.3c-.2.4-.4.7-.8,1-.4.3-.9.7-1.6,1-.9.5-1.5.9-2,1.4s-.7.9-.8,1.3h5.5v1.2h-7c0-.7.1-1.4.3-1.9Z"/>
  <rect class="cls-1" x="234.5" y="179.5" width="37" height="37" rx="10.3" ry="10.3"/>
  <g>
    <circle class="cls-4" cx="360.3" cy="198" r="1"/>
    <circle class="cls-4" cx="367.3" cy="198" r="1"/>
    <circle class="cls-4" cx="353.3" cy="198" r="1"/>
  </g>
</svg>