<?xml version="1.0" encoding="UTF-8"?>
<svg id="Layer_1" data-name="Layer 1" xmlns="http://www.w3.org/2000/svg" width="536" height="396" viewBox="0 0 536 396">
  <defs>
    <style>
      .cls-1, .cls-2 {
        fill: none;
        stroke: #000;
        stroke-linecap: round;
        stroke-linejoin: round;
      }

      .cls-2 {
        opacity: .5;
        stroke-width: .5px;
      }

      .cls-3 {
        letter-spacing: 0em;
      }

      .cls-4 {
        letter-spacing: 0em;
      }

      .cls-5 {
        letter-spacing: -.03em;
      }

      .cls-6 {
        letter-spacing: -.02em;
      }

      .cls-7 {
        letter-spacing: -.01em;
      }

      .cls-8 {
        letter-spacing: -.05em;
      }

      .cls-9 {
        letter-spacing: -.04em;
      }

      .cls-10 {
        letter-spacing: -.03em;
      }

      .cls-11 {
        letter-spacing: 0em;
      }

      .cls-12 {
        letter-spacing: 0em;
      }

      .cls-13 {
        letter-spacing: 0em;
      }

      .cls-14 {
        letter-spacing: -.01em;
      }

      .cls-15 {
        letter-spacing: 0em;
      }

      .cls-16 {
        fill: #221f20;
        font-family: Geist-Regular, Geist;
        font-size: 18px;
      }
    </style>
  </defs>
  <text class="cls-16" transform="translate(92.64 133.19)"><tspan x="0" y="0">Is </tspan><tspan class="cls-9" x="18.9" y="0">i</tspan><tspan x="22.57" y="0">t </tspan><tspan class="cls-14" x="34.18" y="0">a</tspan><tspan class="cls-12" x="44.26" y="0">cces</tspan><tspan class="cls-6" x="83.52" y="0">s</tspan><tspan class="cls-5" x="92.7" y="0">i</tspan><tspan class="cls-13" x="96.64" y="0">b</tspan><tspan class="cls-14" x="107.32" y="0">l</tspan><tspan class="cls-9" x="112.25" y="0">e</tspan><tspan class="cls-3" x="121.73" y="0">?</tspan></text>
  <path class="cls-1" d="M424.94,123.76l6,6,6-6"/>
  <line class="cls-2" x1="93" y1="155.98" x2="443" y2="155.98"/>
  <text class="cls-16" transform="translate(92.64 195.73)"><tspan x="0" y="0">Is </tspan><tspan class="cls-9" x="18.9" y="0">i</tspan><tspan x="22.57" y="0">t </tspan><tspan class="cls-10" x="34.18" y="0">s</tspan><tspan class="cls-4" x="43.18" y="0">ty</tspan><tspan class="cls-14" x="59.96" y="0">l</tspan><tspan class="cls-12" x="64.89" y="0">e</tspan><tspan x="75.01" y="0">d?</tspan></text>
  <path class="cls-1" d="M424.94,187.54l6,6,6-6"/>
  <line class="cls-2" x1="93" y1="218.52" x2="443" y2="218.52"/>
  <text class="cls-16" transform="translate(92.64 258.27)"><tspan x="0" y="0">Is </tspan><tspan class="cls-9" x="18.9" y="0">i</tspan><tspan x="22.57" y="0">t </tspan><tspan class="cls-11" x="34.18" y="0">a</tspan><tspan x="44.35" y="0">n</tspan><tspan class="cls-7" x="54.81" y="0">i</tspan><tspan class="cls-15" x="58.93" y="0">m</tspan><tspan class="cls-8" x="74.54" y="0">a</tspan><tspan class="cls-7" x="83.9" y="0">t</tspan><tspan class="cls-12" x="90.74" y="0">e</tspan><tspan x="100.85" y="0">d?</tspan></text>
  <path class="cls-1" d="M424.94,248.84l6,6,6-6"/>
  <line class="cls-2" x1="93" y1="281.07" x2="443" y2="281.07"/>
</svg>