<?xml version="1.0" encoding="UTF-8"?>
<svg id="Layer_1" data-name="Layer 1" xmlns="http://www.w3.org/2000/svg" width="536" height="396" viewBox="0 0 536 396">
  <defs>
    <style>
      .cls-1 {
        fill: #231f20;
      }

      .cls-2, .cls-3 {
        fill: none;
        stroke: #000;
        stroke-linecap: round;
        stroke-linejoin: round;
      }

      .cls-3 {
        opacity: .5;
        stroke-width: .5px;
      }
    </style>
  </defs>
  <g>
    <path class="cls-1" d="M94.3,120.4h1.5v12.8h-1.5v-12.8Z"/>
    <path class="cls-1" d="M99.5,132.5c-.7-.6-1.1-1.4-1.2-2.3h1.6c.2,1.2,1,1.8,2.5,1.8s1.2-.1,1.6-.3.6-.6.6-1,0-.5-.2-.6-.4-.3-.7-.4-.9-.2-1.5-.4c-1.3-.2-2.3-.6-2.8-1-.5-.4-.8-1-.8-1.8s.3-1.6,1-2.1c.6-.5,1.5-.8,2.6-.8s2,.3,2.6.9c.6.6,1,1.3,1.2,2.2h-1.6c-.1-.4-.4-.8-.7-1.2-.4-.3-.9-.5-1.5-.5s-1.2.1-1.5.4-.5.6-.5,1,.2.8.5,1c.3.2.9.4,1.8.6,1,.2,1.7.4,2.3.6.5.2.9.5,1.1.9.2.3.3.8.3,1.3,0,.9-.4,1.5-1.1,2-.7.5-1.6.7-2.7.7s-2.2-.3-2.9-.9Z"/>
    <path class="cls-1" d="M112.9,120.4h1.6v1.8h-1.6v-1.8ZM113,123.6h1.5v9.5h-1.5v-9.5Z"/>
    <path class="cls-1" d="M118.2,132.6c-.4-.4-.6-1-.6-1.9v-5.8h-1.4v-1.3h1.4v-2.2h1.5v2.2h2.5v1.3h-2.5v5.7c0,.4,0,.7.3.9.2.2.5.3.9.3h1.4v1.3h-1.5c-.9,0-1.5-.2-1.9-.6Z"/>
    <path class="cls-1" d="M128.5,132.7c-.6-.5-.9-1.1-.9-1.9s.2-1.5.7-1.9c.5-.5,1.2-.8,2.3-1l3.4-.6c0-1.6-.8-2.4-2.3-2.4s-2.1.6-2.4,1.7h-1.6c.2-1,.6-1.8,1.3-2.3s1.6-.8,2.6-.8,2.1.3,2.8,1c.7.7,1,1.6,1,2.9v3.9c0,.2,0,.4.1.5s.2.1.4.1h.4v1.3c-.1,0-.3,0-.6,0-.6,0-1-.1-1.3-.4-.3-.2-.5-.6-.5-1.2-.2.5-.7.9-1.2,1.2-.6.3-1.2.5-1.9.5-1,0-1.8-.2-2.4-.7ZM133.2,131.3c.5-.5.8-1.2.8-2v-.7l-3.1.6c-.6.1-1.1.3-1.3.5-.3.2-.4.6-.4,1s.2.8.5,1c.3.2.8.4,1.3.4.9,0,1.7-.3,2.2-.8Z"/>
    <path class="cls-1" d="M139.8,132.8c-.7-.4-1.2-1-1.5-1.7-.4-.8-.5-1.6-.5-2.6s.2-1.9.5-2.6c.4-.8.9-1.3,1.5-1.7.7-.4,1.4-.6,2.3-.6s2,.3,2.7.9c.7.6,1.2,1.4,1.3,2.4h-1.6c-.1-.5-.4-1-.8-1.3-.4-.3-1-.5-1.6-.5s-1.6.3-2.1.9-.7,1.5-.7,2.6.2,2,.7,2.6,1.2.9,2.1.9,1.2-.2,1.6-.5c.4-.4.7-.9.8-1.6h1.6c-.2,1.2-.6,2-1.3,2.7-.7.6-1.6.9-2.7.9s-1.6-.2-2.3-.6Z"/>
    <path class="cls-1" d="M149.7,132.8c-.7-.4-1.2-1-1.5-1.7-.4-.8-.5-1.6-.5-2.6s.2-1.9.5-2.6c.4-.8.9-1.3,1.5-1.7.7-.4,1.4-.6,2.3-.6s2,.3,2.7.9c.7.6,1.2,1.4,1.3,2.4h-1.6c-.1-.5-.4-1-.8-1.3-.4-.3-1-.5-1.6-.5s-1.6.3-2.1.9-.7,1.5-.7,2.6.2,2,.7,2.6,1.2.9,2.1.9,1.2-.2,1.6-.5c.4-.4.7-.9.8-1.6h1.6c-.2,1.2-.6,2-1.3,2.7-.7.6-1.6.9-2.7.9s-1.6-.2-2.3-.6Z"/>
    <path class="cls-1" d="M159.5,132.8c-.7-.4-1.2-1-1.5-1.7-.4-.8-.5-1.6-.5-2.6s.2-1.9.5-2.6c.4-.8.9-1.3,1.5-1.7.6-.4,1.4-.6,2.3-.6s1.6.2,2.2.6,1.1,1,1.5,1.7c.4.8.5,1.7.5,2.7v.5h-6.9c0,1,.3,1.8.8,2.3.5.5,1.1.8,2,.8s1.1-.1,1.5-.4c.4-.3.7-.7.9-1.2h1.6c-.3,1-.7,1.7-1.4,2.2s-1.6.8-2.5.8-1.7-.2-2.3-.6ZM163.5,125.5c-.5-.5-1-.7-1.8-.7s-1.4.2-1.8.7c-.5.5-.8,1.1-.9,2h5.3c0-.9-.3-1.6-.8-2Z"/>
    <path class="cls-1" d="M168.7,132.5c-.7-.6-1.1-1.4-1.2-2.3h1.6c.2,1.2,1,1.8,2.5,1.8s1.2-.1,1.6-.3.6-.6.6-1,0-.5-.2-.6-.4-.3-.7-.4-.9-.2-1.5-.4c-1.3-.2-2.3-.6-2.8-1-.5-.4-.8-1-.8-1.8s.3-1.6,1-2.1c.6-.5,1.5-.8,2.6-.8s2,.3,2.6.9c.6.6,1,1.3,1.2,2.2h-1.6c-.1-.4-.4-.8-.7-1.2-.4-.3-.9-.5-1.5-.5s-1.2.1-1.5.4-.5.6-.5,1,.2.8.5,1c.3.2.9.4,1.8.6,1,.2,1.7.4,2.3.6.5.2.9.5,1.1.9.2.3.3.8.3,1.3,0,.9-.4,1.5-1.1,2-.7.5-1.6.7-2.7.7s-2.2-.3-2.9-.9Z"/>
    <path class="cls-1" d="M178.2,132.5c-.7-.6-1.1-1.4-1.2-2.3h1.6c.2,1.2,1,1.8,2.5,1.8s1.2-.1,1.6-.3.6-.6.6-1,0-.5-.2-.6-.4-.3-.7-.4-.9-.2-1.5-.4c-1.3-.2-2.3-.6-2.8-1-.5-.4-.8-1-.8-1.8s.3-1.6,1-2.1c.6-.5,1.5-.8,2.6-.8s2,.3,2.6.9c.6.6,1,1.3,1.2,2.2h-1.6c-.1-.4-.4-.8-.7-1.2-.4-.3-.9-.5-1.5-.5s-1.2.1-1.5.4-.5.6-.5,1,.2.8.5,1c.3.2.9.4,1.8.6,1,.2,1.7.4,2.3.6.5.2.9.5,1.1.9.2.3.3.8.3,1.3,0,.9-.4,1.5-1.1,2-.7.5-1.6.7-2.7.7s-2.2-.3-2.9-.9Z"/>
    <path class="cls-1" d="M186.7,120.4h1.6v1.8h-1.6v-1.8ZM186.8,123.6h1.5v9.5h-1.5v-9.5Z"/>
    <path class="cls-1" d="M193.3,133c-.5-.3-.9-.7-1.2-1.2v1.4h-1.4v-12.8h1.5v4.6c.3-.4.6-.8,1.2-1.1.5-.3,1.1-.5,1.7-.5s1.6.2,2.2.6c.6.4,1.1,1,1.4,1.7s.5,1.6.5,2.6-.2,1.9-.5,2.6-.8,1.3-1.4,1.7c-.6.4-1.3.6-2.2.6s-1.2-.1-1.8-.4ZM196.9,131c.5-.6.7-1.5.7-2.6s-.2-2-.7-2.6-1.1-.9-1.9-.9-1.6.3-2.1.9-.7,1.5-.7,2.6.2,2,.7,2.6c.5.6,1.2,1,2,1s1.4-.3,1.9-1Z"/>
    <path class="cls-1" d="M201.9,132.7c-.3-.3-.5-.7-.5-1.4v-11h1.5v10.9c0,.4.2.6.6.6h.8v1.3h-1.1c-.6,0-1-.1-1.4-.4Z"/>
    <path class="cls-1" d="M207.8,132.8c-.7-.4-1.2-1-1.5-1.7-.4-.8-.5-1.6-.5-2.6s.2-1.9.5-2.6c.4-.8.9-1.3,1.5-1.7.6-.4,1.4-.6,2.3-.6s1.6.2,2.2.6,1.1,1,1.5,1.7c.4.8.5,1.7.5,2.7v.5h-6.9c0,1,.3,1.8.8,2.3.5.5,1.1.8,2,.8s1.1-.1,1.5-.4c.4-.3.7-.7.9-1.2h1.6c-.3,1-.7,1.7-1.4,2.2s-1.6.8-2.5.8-1.7-.2-2.3-.6ZM211.8,125.5c-.5-.5-1-.7-1.8-.7s-1.4.2-1.8.7c-.5.5-.8,1.1-.9,2h5.3c0-.9-.3-1.6-.8-2Z"/>
    <path class="cls-1" d="M219,127.5c.3-.5.7-1,1.3-1.4.5-.3.8-.6,1.1-.8s.4-.4.5-.7c0-.2.1-.5.1-.9,0-.6-.2-1.2-.6-1.6-.4-.4-1-.6-1.7-.6-1.8,0-2.7.9-2.9,2.7h-1.6c0-.9.3-1.6.7-2.2.4-.6.9-1.1,1.6-1.4.7-.3,1.4-.5,2.3-.5s1.5.2,2.1.5c.6.3,1.1.7,1.4,1.3s.5,1.2.5,1.9-.2,1.3-.5,1.8c-.3.5-.9,1-1.7,1.5-.5.3-.8.6-1,1-.2.3-.3.8-.3,1.5h-1.5c0-.9.1-1.5.4-2ZM218.4,131.2h2v2h-2v-2Z"/>
  </g>
  <path class="cls-2" d="M424.9,123.8l6,6,6-6"/>
  <line class="cls-3" x1="93" y1="156" x2="443" y2="156"/>
  <g>
    <path class="cls-1" d="M94.3,182.9h1.5v12.8h-1.5v-12.8Z"/>
    <path class="cls-1" d="M99.5,195.1c-.7-.6-1.1-1.4-1.2-2.3h1.6c.2,1.2,1,1.8,2.5,1.8s1.2-.1,1.6-.3.6-.6.6-1,0-.5-.2-.6-.4-.3-.7-.4-.9-.2-1.5-.4c-1.3-.2-2.3-.6-2.8-1-.5-.4-.8-1-.8-1.8s.3-1.6,1-2.1c.6-.5,1.5-.8,2.6-.8s2,.3,2.6.9c.6.6,1,1.3,1.2,2.2h-1.6c-.1-.4-.4-.8-.7-1.2-.4-.3-.9-.5-1.5-.5s-1.2.1-1.5.4-.5.6-.5,1,.2.8.5,1c.3.2.9.4,1.8.6,1,.2,1.7.4,2.3.6.5.2.9.5,1.1.9.2.3.3.8.3,1.3,0,.9-.4,1.5-1.1,2-.7.5-1.6.7-2.7.7s-2.2-.3-2.9-.9Z"/>
    <path class="cls-1" d="M112.9,182.9h1.6v1.8h-1.6v-1.8ZM113,186.2h1.5v9.5h-1.5v-9.5Z"/>
    <path class="cls-1" d="M118.2,195.1c-.4-.4-.6-1-.6-1.9v-5.8h-1.4v-1.3h1.4v-2.2h1.5v2.2h2.5v1.3h-2.5v5.7c0,.4,0,.7.3.9.2.2.5.3.9.3h1.4v1.3h-1.5c-.9,0-1.5-.2-1.9-.6Z"/>
    <path class="cls-1" d="M128.8,195.1c-.7-.6-1.1-1.4-1.2-2.3h1.6c.2,1.2,1,1.8,2.5,1.8s1.2-.1,1.6-.3c.4-.2.6-.6.6-1s0-.5-.2-.6c-.1-.2-.4-.3-.7-.4s-.9-.2-1.5-.4c-1.3-.2-2.3-.6-2.8-1-.5-.4-.8-1-.8-1.8s.3-1.6,1-2.1,1.5-.8,2.6-.8,2,.3,2.6.9c.6.6,1,1.3,1.2,2.2h-1.6c-.1-.4-.4-.8-.7-1.2-.4-.3-.9-.5-1.5-.5s-1.2.1-1.5.4-.5.6-.5,1,.2.8.5,1c.3.2.9.4,1.8.6,1,.2,1.7.4,2.3.6.5.2.9.5,1.1.9.2.3.3.8.3,1.3,0,.9-.4,1.5-1.1,2-.7.5-1.6.7-2.7.7s-2.2-.3-2.9-.9Z"/>
    <path class="cls-1" d="M138.8,195.1c-.4-.4-.6-1-.6-1.9v-5.8h-1.4v-1.3h1.4v-2.2h1.5v2.2h2.5v1.3h-2.5v5.7c0,.4,0,.7.3.9.2.2.5.3.9.3h1.4v1.3h-1.5c-.9,0-1.5-.2-1.9-.6Z"/>
    <path class="cls-1" d="M144.8,197.1h1.1c.3,0,.6,0,.7-.2s.3-.3.4-.5l.3-.9h-.5l-3.5-9.4h1.7l2.8,8,2.7-8h1.7l-3.9,10.7c-.2.5-.5.9-.8,1.1-.4.2-.9.4-1.5.4h-1.2v-1.3Z"/>
    <path class="cls-1" d="M154.5,195.3c-.3-.3-.5-.7-.5-1.4v-11h1.5v10.9c0,.4.2.6.6.6h.8v1.3h-1.1c-.6,0-1-.1-1.4-.4Z"/>
    <path class="cls-1" d="M160.4,195.3c-.7-.4-1.2-1-1.5-1.7-.4-.8-.5-1.6-.5-2.6s.2-1.9.5-2.6c.4-.8.9-1.3,1.5-1.7.6-.4,1.4-.6,2.3-.6s1.6.2,2.2.6,1.1,1,1.5,1.7c.4.8.5,1.7.5,2.7v.5h-6.9c0,1,.3,1.8.8,2.3.5.5,1.1.8,2,.8s1.1-.1,1.5-.4c.4-.3.7-.7.9-1.2h1.6c-.3,1-.7,1.7-1.4,2.2s-1.6.8-2.5.8-1.7-.2-2.3-.6ZM164.5,188.1c-.5-.5-1-.7-1.8-.7s-1.4.2-1.8.7c-.5.5-.8,1.1-.9,2h5.3c0-.9-.3-1.6-.8-2Z"/>
    <path class="cls-1" d="M170.4,195.3c-.6-.4-1.1-1-1.4-1.7s-.5-1.6-.5-2.6.2-1.9.5-2.6.8-1.3,1.4-1.7c.6-.4,1.3-.6,2.1-.6s1.2.1,1.8.4c.5.3.9.7,1.2,1.1v-4.6h1.5v12.8h-1.4v-1.4c-.3.5-.7.9-1.3,1.2s-1.1.4-1.8.4-1.5-.2-2.1-.6ZM174.8,193.6c.5-.6.7-1.5.7-2.6s-.2-2-.7-2.6-1.1-.9-1.9-.9-1.5.3-2,.9-.7,1.5-.7,2.6.2,2,.7,2.6,1.2,1,2,1,1.5-.3,1.9-.9Z"/>
    <path class="cls-1" d="M183.1,190.1c.3-.5.7-1,1.3-1.4.5-.3.8-.6,1.1-.8s.4-.4.5-.7c0-.2.1-.5.1-.9,0-.6-.2-1.2-.6-1.6-.4-.4-1-.6-1.7-.6-1.8,0-2.7.9-2.9,2.7h-1.6c0-.9.3-1.6.7-2.2.4-.6.9-1.1,1.6-1.4.7-.3,1.4-.5,2.3-.5s1.5.2,2.1.5c.6.3,1.1.7,1.4,1.3s.5,1.2.5,1.9-.2,1.3-.5,1.8c-.3.5-.9,1-1.7,1.5-.5.3-.8.6-1,1-.2.3-.3.8-.3,1.5h-1.5c0-.9.1-1.5.4-2ZM182.4,193.7h2v2h-2v-2Z"/>
  </g>
  <path class="cls-2" d="M424.9,187.5l6,6,6-6"/>
  <line class="cls-3" x1="93" y1="218.5" x2="443" y2="218.5"/>
  <g>
    <path class="cls-1" d="M94.3,245.5h1.5v12.8h-1.5v-12.8Z"/>
    <path class="cls-1" d="M99.5,257.6c-.7-.6-1.1-1.4-1.2-2.3h1.6c.2,1.2,1,1.8,2.5,1.8s1.2-.1,1.6-.3.6-.6.6-1,0-.5-.2-.6-.4-.3-.7-.4-.9-.2-1.5-.4c-1.3-.2-2.3-.6-2.8-1-.5-.4-.8-1-.8-1.8s.3-1.6,1-2.1c.6-.5,1.5-.8,2.6-.8s2,.3,2.6.9c.6.6,1,1.3,1.2,2.2h-1.6c-.1-.4-.4-.8-.7-1.2-.4-.3-.9-.5-1.5-.5s-1.2.1-1.5.4-.5.6-.5,1,.2.8.5,1c.3.2.9.4,1.8.6,1,.2,1.7.4,2.3.6.5.2.9.5,1.1.9.2.3.3.8.3,1.3,0,.9-.4,1.5-1.1,2-.7.5-1.6.7-2.7.7s-2.2-.3-2.9-.9Z"/>
    <path class="cls-1" d="M112.9,245.5h1.6v1.8h-1.6v-1.8ZM113,248.7h1.5v9.5h-1.5v-9.5Z"/>
    <path class="cls-1" d="M118.2,257.7c-.4-.4-.6-1-.6-1.9v-5.8h-1.4v-1.3h1.4v-2.2h1.5v2.2h2.5v1.3h-2.5v5.7c0,.4,0,.7.3.9.2.2.5.3.9.3h1.4v1.3h-1.5c-.9,0-1.5-.2-1.9-.6Z"/>
    <path class="cls-1" d="M128.5,257.8c-.6-.5-.9-1.1-.9-1.9s.2-1.5.7-1.9c.5-.5,1.2-.8,2.3-1l3.4-.6c0-1.6-.8-2.4-2.3-2.4s-2.1.6-2.4,1.7h-1.6c.2-1,.6-1.8,1.3-2.3s1.6-.8,2.6-.8,2.1.3,2.8,1c.7.7,1,1.6,1,2.9v3.9c0,.2,0,.4.1.5s.2.1.4.1h.4v1.3c-.1,0-.3,0-.6,0-.6,0-1-.1-1.3-.4-.3-.2-.5-.6-.5-1.2-.2.5-.7.9-1.2,1.2-.6.3-1.2.5-1.9.5-1,0-1.8-.2-2.4-.7ZM133.2,256.4c.5-.5.8-1.2.8-2v-.7l-3.1.6c-.6.1-1.1.3-1.3.5-.3.2-.4.6-.4,1s.2.8.5,1c.3.2.8.4,1.3.4.9,0,1.7-.3,2.2-.8Z"/>
    <path class="cls-1" d="M138.4,248.7h1.4v1.7c.3-.6.7-1.1,1.2-1.4.5-.3,1.1-.5,1.8-.5,1,0,1.8.3,2.4,1,.6.7.8,1.5.8,2.6v6.1h-1.5v-5.7c0-.9-.2-1.6-.5-2-.3-.5-.8-.7-1.5-.7s-1.4.2-1.8.7-.7,1.1-.7,2v5.7h-1.5v-9.5Z"/>
    <path class="cls-1" d="M148.9,245.5h1.6v1.8h-1.6v-1.8ZM148.9,248.7h1.5v9.5h-1.5v-9.5Z"/>
    <path class="cls-1" d="M153,248.7h1.4v1.7c.3-.6.6-1,1.1-1.4s1-.5,1.6-.5,1.3.2,1.8.5c.5.3.8.8,1,1.5.2-.6.5-1.1,1-1.5.5-.3,1.1-.5,1.8-.5,1,0,1.8.3,2.3.9.5.6.8,1.5.8,2.7v6.1h-1.5v-5.8c0-.9-.2-1.5-.5-2-.3-.4-.8-.7-1.5-.7s-1.2.2-1.6.7c-.4.5-.6,1.1-.6,2v5.7h-1.5v-5.7c0-1.8-.7-2.7-2-2.7s-1.2.2-1.6.7c-.4.5-.6,1.1-.6,2v5.7h-1.5v-9.5Z"/>
    <path class="cls-1" d="M168.9,257.8c-.6-.5-.9-1.1-.9-1.9s.2-1.5.7-1.9c.5-.5,1.2-.8,2.3-1l3.4-.6c0-1.6-.8-2.4-2.3-2.4s-2.1.6-2.4,1.7h-1.6c.2-1,.6-1.8,1.3-2.3s1.6-.8,2.6-.8,2.1.3,2.8,1c.7.7,1,1.6,1,2.9v3.9c0,.2,0,.4.1.5s.2.1.4.1h.4v1.3c-.1,0-.3,0-.6,0-.6,0-1-.1-1.3-.4-.3-.2-.5-.6-.5-1.2-.2.5-.7.9-1.3,1.2-.6.3-1.2.5-1.9.5-1,0-1.8-.2-2.4-.7ZM173.6,256.4c.5-.5.8-1.2.8-2v-.7l-3.1.6c-.6.1-1.1.3-1.3.5-.3.2-.4.6-.4,1s.2.8.5,1c.3.2.7.4,1.3.4.9,0,1.7-.3,2.2-.8Z"/>
    <path class="cls-1" d="M179.6,257.7c-.4-.4-.6-1-.6-1.9v-5.8h-1.4v-1.3h1.4v-2.2h1.5v2.2h2.5v1.3h-2.5v5.7c0,.4,0,.7.3.9.2.2.5.3.9.3h1.4v1.3h-1.5c-.9,0-1.5-.2-1.9-.6Z"/>
    <path class="cls-1" d="M186.3,257.9c-.7-.4-1.2-1-1.5-1.7-.4-.8-.5-1.6-.5-2.6s.2-1.9.5-2.6c.4-.8.9-1.3,1.5-1.7.6-.4,1.4-.6,2.3-.6s1.6.2,2.2.6,1.1,1,1.5,1.7c.4.8.5,1.7.5,2.7v.5h-6.9c0,1,.3,1.8.8,2.3.5.5,1.1.8,2,.8s1.1-.1,1.5-.4c.4-.3.7-.7.9-1.2h1.6c-.3,1-.7,1.7-1.4,2.2s-1.6.8-2.5.8-1.7-.2-2.3-.6ZM190.3,250.6c-.5-.5-1-.7-1.8-.7s-1.4.2-1.8.7c-.5.5-.8,1.1-.9,2h5.3c0-.9-.3-1.6-.8-2Z"/>
    <path class="cls-1" d="M196.2,257.9c-.6-.4-1.1-1-1.4-1.7s-.5-1.6-.5-2.6.2-1.9.5-2.6.8-1.3,1.4-1.7c.6-.4,1.3-.6,2.1-.6s1.2.1,1.8.4c.5.3.9.7,1.2,1.1v-4.6h1.5v12.8h-1.4v-1.4c-.3.5-.7.9-1.3,1.2s-1.1.4-1.8.4-1.5-.2-2.1-.6ZM200.6,256.1c.5-.6.7-1.5.7-2.6s-.2-2-.7-2.6-1.1-.9-1.9-.9-1.5.3-2,.9-.7,1.5-.7,2.6.2,2,.7,2.6,1.2,1,2,1,1.5-.3,1.9-.9Z"/>
    <path class="cls-1" d="M208.9,252.6c.3-.5.7-1,1.3-1.4.5-.3.8-.6,1.1-.8s.4-.4.5-.7c0-.2.1-.5.1-.9,0-.6-.2-1.2-.6-1.6-.4-.4-1-.6-1.7-.6-1.8,0-2.7.9-2.9,2.7h-1.6c0-.9.3-1.6.7-2.2.4-.6.9-1.1,1.6-1.4.7-.3,1.4-.5,2.3-.5s1.5.2,2.1.5c.6.3,1.1.7,1.4,1.3s.5,1.2.5,1.9-.2,1.3-.5,1.8c-.3.5-.9,1-1.7,1.5-.5.3-.8.6-1,1-.2.3-.3.8-.3,1.5h-1.5c0-.9.1-1.5.4-2ZM208.3,256.2h2v2h-2v-2Z"/>
  </g>
  <path class="cls-2" d="M424.9,248.8l6,6,6-6"/>
  <line class="cls-3" x1="93" y1="281.1" x2="443" y2="281.1"/>
</svg>