<?xml version="1.0" encoding="UTF-8"?>
<svg id="Layer_1" data-name="Layer 1" xmlns="http://www.w3.org/2000/svg" width="536" height="396" viewBox="0 0 536 396">
  <defs>
    <style>
      .cls-1 {
        stroke: #949598;
      }

      .cls-1, .cls-2, .cls-3 {
        fill: none;
      }

      .cls-1, .cls-3 {
        stroke-linecap: round;
        stroke-linejoin: round;
      }

      .cls-4 {
        fill: #221f20;
      }

      .cls-2 {
        opacity: .5;
        stroke: #221f20;
        stroke-miterlimit: 10;
        stroke-width: .5px;
      }

      .cls-5 {
        letter-spacing: 0em;
      }

      .cls-6 {
        letter-spacing: 0em;
      }

      .cls-7 {
        fill: #818284;
        font-family: Geist-Regular, Geist;
        font-size: 14px;
      }

      .cls-3 {
        stroke: #fff;
      }

      .cls-8 {
        letter-spacing: -.02em;
      }

      .cls-9 {
        letter-spacing: -.02em;
      }

      .cls-10 {
        letter-spacing: -.02em;
      }

      .cls-11 {
        letter-spacing: -.01em;
      }

      .cls-12 {
        letter-spacing: -.05em;
      }

      .cls-13 {
        letter-spacing: -.05em;
      }

      .cls-14 {
        letter-spacing: -.03em;
      }

      .cls-15 {
        letter-spacing: 0em;
      }

      .cls-16 {
        letter-spacing: 0em;
      }

      .cls-17 {
        letter-spacing: 0em;
      }
    </style>
  </defs>
  <rect class="cls-2" x="93" y="123.24" width="350" height="137.3" rx="20" ry="20"/>
  <text class="cls-7" transform="translate(117.47 155.98)"><tspan x="0" y="0">W</tspan><tspan class="cls-16" x="12.75" y="0">h</tspan><tspan class="cls-13" x="20.75" y="0">a</tspan><tspan x="28.03" y="0">t </tspan><tspan class="cls-8" x="37.06" y="0">w</tspan><tspan class="cls-17" x="48.17" y="0">o</tspan><tspan x="56.14" y="0">u</tspan><tspan class="cls-16" x="64.19" y="0">l</tspan><tspan x="68.03" y="0">d </tspan><tspan class="cls-8" x="79.9" y="0">y</tspan><tspan class="cls-16" x="87.07" y="0">o</tspan><tspan x="95.03" y="0">u l</tspan><tspan class="cls-11" x="110.56" y="0">i</tspan><tspan class="cls-12" x="113.76" y="0">k</tspan><tspan x="121.32" y="0">e </tspan><tspan class="cls-10" x="132.76" y="0">t</tspan><tspan class="cls-6" x="138.08" y="0">o </tspan><tspan class="cls-11" x="149.69" y="0">kn</tspan><tspan class="cls-8" x="165.66" y="0">o</tspan><tspan x="173.42" y="0">w?</tspan></text>
  <text class="cls-7" transform="translate(191.57 244.29)"><tspan x="0" y="0">Se</tspan><tspan class="cls-15" x="17.01" y="0">a</tspan><tspan class="cls-14" x="24.92" y="0">r</tspan><tspan class="cls-9" x="29.85" y="0">c</tspan><tspan class="cls-5" x="37.3" y="0">h</tspan></text>
  <text class="cls-7" transform="translate(266.09 244.29)"><tspan x="0" y="0">GPT-4</tspan></text>
  <path class="cls-1" d="M315.45,237.44l3.75,3.75,3.75-3.75"/>
  <rect class="cls-4" x="407.48" y="225.18" width="28.26" height="28.26" rx="14.13" ry="14.13"/>
  <g>
    <path class="cls-1" d="M117.47,239.32h8.74"/>
    <path class="cls-1" d="M121.84,234.95v8.74"/>
  </g>
  <g>
    <path class="cls-1" d="M149.25,233.07c-1.03,0-1.87.84-1.87,1.87v4.37c0,1.03.84,1.87,1.87,1.87s1.87-.84,1.87-1.87v-4.37c0-1.03-.84-1.87-1.87-1.87Z"/>
    <path class="cls-1" d="M153.62,238.07v1.25c0,2.41-1.96,4.37-4.37,4.37s-4.37-1.96-4.37-4.37v-1.25"/>
    <line class="cls-1" x1="149.25" y1="243.69" x2="149.25" y2="245.56"/>
  </g>
  <g>
    <circle class="cls-1" cx="180.1" cy="239.32" r="6.24"/>
    <path class="cls-1" d="M180.1,233.07c-3.33,3.5-3.33,8.99,0,12.48,3.33-3.5,3.33-8.99,0-12.48"/>
    <path class="cls-1" d="M173.86,239.32h12.48"/>
  </g>
  <g>
    <path class="cls-3" d="M423.19,245.36c.06.16.25.24.41.17.08-.03.15-.1.18-.19l4.06-11.86c.06-.16-.03-.34-.19-.4-.07-.02-.14-.02-.21,0l-11.86,4.06c-.16.06-.25.23-.19.4.03.09.09.15.18.19l4.95,1.98c.32.13.57.38.69.69l1.98,4.95Z"/>
    <path class="cls-3" d="M427.76,233.17l-6.83,6.83"/>
  </g>
</svg>