<?xml version="1.0" encoding="UTF-8"?>
<svg id="Layer_1" data-name="Layer 1" xmlns="http://www.w3.org/2000/svg" width="536" height="396" viewBox="0 0 536 396">
  <defs>
    <style>
      .cls-1 {
        fill: #231f20;
      }

      .cls-2 {
        opacity: .5;
        stroke: #231f20;
        stroke-miterlimit: 10;
        stroke-width: .5px;
      }

      .cls-2, .cls-3, .cls-4 {
        fill: none;
      }

      .cls-5 {
        fill: #808285;
      }

      .cls-3 {
        stroke: #fff;
      }

      .cls-3, .cls-4 {
        stroke-linecap: round;
        stroke-linejoin: round;
      }

      .cls-4 {
        stroke: #939598;
      }
    </style>
  </defs>
  <rect class="cls-2" x="93" y="123.2" width="350" height="137.3" rx="20" ry="20"/>
  <g>
    <path class="cls-5" d="M117.8,146h1.3l2,8.3,2-8.3h1.4l2,8.3,2-8.3h1.3l-2.6,9.9h-1.5l-2-7.7-2,7.7h-1.5l-2.6-9.9Z"/>
    <path class="cls-5" d="M131.3,146h1.2v3.7c.2-.4.5-.8.9-1,.4-.2.8-.3,1.4-.3.8,0,1.4.3,1.8.8.4.5.7,1.2.7,2v4.8h-1.2v-4.4c0-1.4-.5-2.1-1.6-2.1s-1.1.2-1.5.6c-.4.4-.5.9-.5,1.6v4.4h-1.2v-9.9Z"/>
    <path class="cls-5" d="M139.6,155.6c-.4-.4-.7-.8-.7-1.5s.2-1.1.6-1.5c.4-.4,1-.6,1.8-.8l2.6-.5c0-1.2-.6-1.9-1.8-1.9s-1.6.4-1.8,1.3h-1.2c.1-.8.5-1.4,1-1.8s1.2-.6,2.1-.6,1.7.3,2.2.8.8,1.3.8,2.2v3.1c0,.2,0,.3,0,.4,0,0,.2.1.3.1h.3v1c-.1,0-.3,0-.4,0-.4,0-.8,0-1-.3-.2-.2-.4-.5-.4-.9-.2.4-.5.7-1,.9s-1,.4-1.5.4c-.8,0-1.4-.2-1.8-.5ZM143.2,154.5c.4-.4.6-.9.6-1.6v-.5l-2.4.4c-.5,0-.8.2-1,.4-.2.2-.3.4-.3.8s.1.6.4.8c.2.2.6.3,1,.3.7,0,1.3-.2,1.7-.6Z"/>
    <path class="cls-5" d="M147.8,155.5c-.3-.3-.5-.8-.5-1.4v-4.5h-1.1v-1h1.1v-1.7h1.2v1.7h2v1h-2v4.5c0,.3,0,.6.2.7.1.1.4.2.7.2h1.1v1h-1.2c-.7,0-1.2-.2-1.5-.5Z"/>
    <path class="cls-5" d="M154.8,148.6h1.3l1.7,6.2,1.8-6.2h1.3l1.8,6.2,1.8-6.2h1.3l-2.3,7.4h-1.5l-1.7-5.6-1.7,5.6h-1.5l-2.3-7.4Z"/>
    <path class="cls-5" d="M167.9,155.7c-.5-.3-.9-.8-1.2-1.4-.3-.6-.4-1.3-.4-2.1s.1-1.5.4-2.1.7-1,1.2-1.4c.5-.3,1.1-.5,1.8-.5s1.3.2,1.8.5c.5.3.9.8,1.2,1.4.3.6.4,1.3.4,2.1s-.1,1.5-.4,2.1c-.3.6-.7,1-1.2,1.4-.5.3-1.1.5-1.8.5s-1.3-.2-1.8-.5ZM171.3,154.3c.4-.5.6-1.2.6-2s-.2-1.5-.6-2c-.4-.5-.9-.7-1.6-.7s-1.2.2-1.6.7-.6,1.2-.6,2,.2,1.5.6,2,.9.7,1.6.7,1.2-.2,1.6-.7Z"/>
    <path class="cls-5" d="M175.4,155.4c-.4-.5-.7-1.2-.7-2.1v-4.8h1.2v4.5c0,.7.1,1.2.4,1.6s.7.5,1.2.5,1-.2,1.4-.6c.3-.4.5-.9.5-1.6v-4.4h1.2v7.4h-1.1v-1.2c-.2.4-.5.8-.9,1-.4.2-.8.4-1.4.4s-1.3-.2-1.8-.7Z"/>
    <path class="cls-5" d="M183.2,155.6c-.3-.2-.4-.6-.4-1.1v-8.5h1.2v8.4c0,.3.2.5.5.5h.6v1h-.8c-.5,0-.8-.1-1.1-.3Z"/>
    <path class="cls-5" d="M187.6,155.7c-.5-.3-.8-.8-1.1-1.4-.3-.6-.4-1.3-.4-2.1s.1-1.5.4-2.1.6-1,1.1-1.4c.5-.3,1-.5,1.7-.5s1,.1,1.4.3.7.5.9.9v-3.6h1.2v9.9h-1.1v-1.1c-.2.4-.6.7-1,.9s-.9.3-1.4.3-1.2-.2-1.7-.5ZM191,154.3c.4-.5.5-1.2.5-2s-.2-1.5-.5-2-.9-.7-1.5-.7-1.2.2-1.6.7c-.4.5-.6,1.2-.6,2s.2,1.5.6,2c.4.5.9.7,1.6.7s1.2-.2,1.5-.7Z"/>
    <path class="cls-5" d="M198.8,157h.9c.3,0,.4,0,.6-.1.1,0,.2-.2.3-.4l.3-.7h-.4l-2.7-7.3h1.3l2.2,6.2,2.1-6.2h1.3l-3,8.4c-.1.4-.4.7-.6.9-.3.2-.7.3-1.2.3h-1v-1Z"/>
    <path class="cls-5" d="M206.8,155.7c-.5-.3-.9-.8-1.2-1.4-.3-.6-.4-1.3-.4-2.1s.1-1.5.4-2.1.7-1,1.2-1.4c.5-.3,1.1-.5,1.8-.5s1.3.2,1.8.5c.5.3.9.8,1.2,1.4.3.6.4,1.3.4,2.1s-.1,1.5-.4,2.1c-.3.6-.7,1-1.2,1.4-.5.3-1.1.5-1.8.5s-1.3-.2-1.8-.5ZM210.2,154.3c.4-.5.6-1.2.6-2s-.2-1.5-.6-2c-.4-.5-.9-.7-1.6-.7s-1.2.2-1.6.7-.6,1.2-.6,2,.2,1.5.6,2,.9.7,1.6.7,1.2-.2,1.6-.7Z"/>
    <path class="cls-5" d="M214.3,155.4c-.4-.5-.7-1.2-.7-2.1v-4.8h1.2v4.5c0,.7.1,1.2.4,1.6s.7.5,1.2.5,1-.2,1.4-.6c.3-.4.5-.9.5-1.6v-4.4h1.2v7.4h-1.1v-1.2c-.2.4-.5.8-.9,1-.4.2-.8.4-1.4.4s-1.3-.2-1.8-.7Z"/>
    <path class="cls-5" d="M225.6,155.6c-.3-.2-.4-.6-.4-1.1v-8.5h1.2v8.4c0,.3.2.5.5.5h.6v1h-.8c-.5,0-.8-.1-1.1-.3Z"/>
    <path class="cls-5" d="M229.1,146h1.2v1.4h-1.2v-1.4ZM229.2,148.6h1.2v7.4h-1.2v-7.4Z"/>
    <path class="cls-5" d="M232.4,146h1.2v6.5l3.6-4h1.6l-2.9,3.2,3.1,4.3h-1.4l-2.4-3.5-1.5,1.5v1.9h-1.2v-9.9Z"/>
    <path class="cls-5" d="M241.1,155.7c-.5-.3-.9-.8-1.2-1.4-.3-.6-.4-1.3-.4-2.1s.1-1.5.4-2c.3-.6.7-1,1.2-1.4.5-.3,1.1-.5,1.8-.5s1.2.2,1.7.5c.5.3.9.7,1.2,1.3s.4,1.3.4,2.1v.4h-5.4c0,.8.2,1.4.6,1.8.4.4.9.6,1.5.6s.9-.1,1.2-.3c.3-.2.5-.5.7-.9h1.3c-.2.8-.6,1.3-1.1,1.7-.6.4-1.2.6-2,.6s-1.3-.2-1.8-.5ZM244.2,150c-.3-.3-.8-.5-1.4-.5s-1.1.2-1.4.5c-.4.4-.6.9-.7,1.6h4.1c0-.7-.3-1.2-.6-1.6Z"/>
    <path class="cls-5" d="M252.6,155.5c-.3-.3-.5-.8-.5-1.4v-4.5h-1.1v-1h1.1v-1.7h1.2v1.7h2v1h-2v4.5c0,.3,0,.6.2.7.1.1.4.2.7.2h1.1v1h-1.2c-.7,0-1.2-.2-1.5-.5Z"/>
    <path class="cls-5" d="M257.8,155.7c-.5-.3-.9-.8-1.2-1.4-.3-.6-.4-1.3-.4-2.1s.1-1.5.4-2.1.7-1,1.2-1.4c.5-.3,1.1-.5,1.8-.5s1.3.2,1.8.5c.5.3.9.8,1.2,1.4.3.6.4,1.3.4,2.1s-.1,1.5-.4,2.1c-.3.6-.7,1-1.2,1.4-.5.3-1.1.5-1.8.5s-1.3-.2-1.8-.5ZM261.2,154.3c.4-.5.6-1.2.6-2s-.2-1.5-.6-2c-.4-.5-.9-.7-1.6-.7s-1.2.2-1.6.7-.6,1.2-.6,2,.2,1.5.6,2,.9.7,1.6.7,1.2-.2,1.6-.7Z"/>
    <path class="cls-5" d="M268.3,146h1.2v6.5l3.6-4h1.6l-2.9,3.2,3.1,4.3h-1.4l-2.4-3.5-1.5,1.5v1.9h-1.2v-9.9Z"/>
    <path class="cls-5" d="M276.3,148.6h1.1v1.3c.2-.5.5-.9.9-1.1.4-.3.9-.4,1.4-.4.8,0,1.4.3,1.9.8.4.5.6,1.2.6,2v4.8h-1.2v-4.4c0-.7-.1-1.2-.4-1.6-.3-.4-.7-.5-1.2-.5s-1.1.2-1.4.6c-.4.4-.5.9-.5,1.6v4.4h-1.2v-7.4Z"/>
    <path class="cls-5" d="M285.4,155.7c-.5-.3-.9-.8-1.2-1.4-.3-.6-.4-1.3-.4-2.1s.1-1.5.4-2.1.7-1,1.2-1.4c.5-.3,1.1-.5,1.8-.5s1.3.2,1.8.5c.5.3.9.8,1.2,1.4.3.6.4,1.3.4,2.1s-.1,1.5-.4,2.1c-.3.6-.7,1-1.2,1.4-.5.3-1.1.5-1.8.5s-1.3-.2-1.8-.5ZM288.8,154.3c.4-.5.6-1.2.6-2s-.2-1.5-.6-2c-.4-.5-.9-.7-1.6-.7s-1.2.2-1.6.7-.6,1.2-.6,2,.2,1.5.6,2,.9.7,1.6.7,1.2-.2,1.6-.7Z"/>
    <path class="cls-5" d="M291.2,148.6h1.3l1.7,6.2,1.8-6.2h1.3l1.8,6.2,1.8-6.2h1.3l-2.3,7.4h-1.5l-1.7-5.6-1.7,5.6h-1.5l-2.3-7.4Z"/>
    <path class="cls-5" d="M306,151.6c.2-.4.6-.7,1-1.1.4-.2.7-.4.8-.6.2-.2.3-.3.4-.5,0-.2.1-.4.1-.7,0-.5-.2-.9-.5-1.2-.3-.3-.8-.5-1.3-.5-1.4,0-2.1.7-2.3,2.1h-1.3c0-.7.2-1.2.5-1.7.3-.5.7-.9,1.2-1.1.5-.3,1.1-.4,1.8-.4s1.1.1,1.6.4c.5.2.8.6,1.1,1,.3.4.4.9.4,1.5s-.1,1-.4,1.4c-.3.4-.7.8-1.4,1.2-.4.2-.6.5-.8.8-.1.3-.2.7-.2,1.1h-1.2c0-.7.1-1.2.3-1.6ZM305.5,154.4h1.6v1.6h-1.6v-1.6Z"/>
  </g>
  <g>
    <path class="cls-5" d="M194.3,244.1c-.6-.3-1-.7-1.4-1.2-.3-.5-.5-1.1-.6-1.8h1.3c.1.7.4,1.2.8,1.6.5.4,1.1.6,1.9.6s1.2-.1,1.6-.4c.4-.3.6-.7.6-1.2s0-.6-.2-.8c-.1-.2-.4-.4-.8-.6-.4-.2-1-.4-1.8-.6-.8-.2-1.4-.4-1.8-.6-.4-.2-.8-.5-1-.8-.2-.3-.3-.7-.3-1.3s.1-1,.4-1.5c.3-.4.6-.8,1.1-1,.5-.2,1.1-.4,1.8-.4,1.1,0,1.9.3,2.6.9.6.6,1,1.3,1.1,2.3h-1.3c0-.5-.3-1-.8-1.4s-1-.6-1.7-.6-1.1.1-1.5.4c-.4.3-.5.7-.5,1.2s0,.6.2.8c.1.2.4.4.8.5.4.2.9.3,1.6.5,1.2.3,2.1.7,2.6,1.2s.8,1.1.8,1.8-.1,1.1-.4,1.5c-.3.4-.7.8-1.2,1s-1.1.3-1.8.3-1.4-.1-2-.4Z"/>
    <path class="cls-5" d="M202.9,244c-.5-.3-.9-.8-1.2-1.4-.3-.6-.4-1.3-.4-2.1s.1-1.5.4-2,.7-1,1.2-1.4c.5-.3,1.1-.5,1.8-.5s1.2.2,1.7.5c.5.3.9.7,1.2,1.3.3.6.4,1.3.4,2.1v.4h-5.4c0,.8.2,1.4.6,1.8.4.4.9.6,1.5.6s.9-.1,1.2-.3c.3-.2.5-.5.7-.9h1.3c-.2.8-.6,1.3-1.1,1.7-.6.4-1.2.6-2,.6s-1.3-.2-1.8-.5ZM206,238.3c-.3-.3-.8-.5-1.4-.5s-1.1.2-1.4.5c-.4.4-.6.9-.7,1.6h4.1c0-.7-.3-1.2-.6-1.6Z"/>
    <path class="cls-5" d="M209.9,243.9c-.4-.4-.7-.8-.7-1.5s.2-1.1.6-1.5c.4-.4,1-.6,1.8-.8l2.6-.5c0-1.2-.6-1.9-1.8-1.9s-1.6.4-1.8,1.3h-1.2c.1-.8.5-1.4,1-1.8s1.2-.6,2.1-.6,1.7.3,2.2.8.8,1.3.8,2.2v3.1c0,.2,0,.3,0,.4,0,0,.2.1.3.1h.3v1c-.1,0-.3,0-.4,0-.4,0-.8,0-1-.3-.2-.2-.4-.5-.4-.9-.2.4-.5.7-1,.9s-1,.4-1.5.4c-.8,0-1.4-.2-1.8-.5ZM213.6,242.8c.4-.4.6-.9.6-1.6v-.5l-2.4.4c-.5,0-.8.2-1,.4-.2.2-.3.4-.3.8s.1.6.4.8c.2.2.6.3,1,.3.7,0,1.3-.2,1.7-.6Z"/>
    <path class="cls-5" d="M217.6,236.9h1v1.4c.3-.9.9-1.4,1.8-1.4h.7v1.1h-.7c-1.1,0-1.7.6-1.7,1.8v4.5h-1.2v-7.4Z"/>
    <path class="cls-5" d="M223.7,244c-.5-.3-.9-.8-1.2-1.4s-.4-1.3-.4-2,.1-1.5.4-2,.7-1,1.2-1.4c.5-.3,1.1-.5,1.8-.5s1.6.2,2.1.7c.6.4.9,1.1,1,1.9h-1.2c0-.4-.3-.8-.6-1-.3-.3-.8-.4-1.3-.4s-1.2.2-1.6.7-.6,1.2-.6,2,.2,1.5.6,2,.9.7,1.6.7.9-.1,1.3-.4.6-.7.6-1.3h1.2c-.1.9-.5,1.6-1,2.1-.6.5-1.3.7-2.1.7s-1.3-.2-1.8-.5Z"/>
    <path class="cls-5" d="M230,234.3h1.2v3.7c.2-.4.5-.8.9-1,.4-.2.8-.3,1.4-.3.8,0,1.4.3,1.8.8.4.5.7,1.2.7,2v4.8h-1.2v-4.4c0-1.4-.5-2.1-1.6-2.1s-1.1.2-1.5.6c-.4.4-.5.9-.5,1.6v4.4h-1.2v-9.9Z"/>
  </g>
  <g>
    <path class="cls-5" d="M268.8,243.8c-.7-.4-1.2-1.1-1.5-1.8s-.5-1.7-.5-2.7.2-1.9.5-2.7c.4-.8.9-1.4,1.5-1.9s1.5-.7,2.4-.7,2,.3,2.7.9c.7.6,1.1,1.4,1.3,2.4h-1.3c-.3-1.4-1.2-2.1-2.7-2.1s-1.9.4-2.4,1.1c-.5.8-.8,1.7-.8,2.9s.3,2.2.8,2.9c.5.7,1.3,1.1,2.4,1.1s1.1-.1,1.5-.4c.4-.3.8-.6,1-1.1.2-.4.4-.9.4-1.5h-2.9v-1.1h4v5h-.9v-1.7c-.3.6-.7,1-1.3,1.4-.6.3-1.2.5-1.9.5s-1.7-.2-2.4-.7Z"/>
    <path class="cls-5" d="M277.3,234.3h3.6c1.1,0,2,.3,2.6.8.6.5.9,1.3.9,2.2s-.3,1.7-.9,2.3c-.6.5-1.5.8-2.6.8h-2.4v3.9h-1.2v-9.9ZM283.1,237.4c0-1.2-.8-1.8-2.3-1.8h-2.4v3.7h2.4c1.5,0,2.3-.6,2.3-1.9Z"/>
    <path class="cls-5" d="M288.5,235.5h-3.1v-1.2h7.4v1.2h-3.1v8.8h-1.2v-8.8Z"/>
    <path class="cls-5" d="M293.9,239.7h4.6v1.1h-4.6v-1.1Z"/>
    <path class="cls-5" d="M304.9,242.1h-5.1v-1.1l5-6.7h1.3v6.6h1.2v1.2h-1.2v2.2h-1.2v-2.2ZM304.9,241v-4.8l-3.6,4.8h3.6Z"/>
  </g>
  <path class="cls-4" d="M315.5,237.4l3.7,3.7,3.7-3.7"/>
  <rect class="cls-1" x="407.5" y="225.2" width="28.3" height="28.3" rx="14.1" ry="14.1"/>
  <g>
    <path class="cls-4" d="M117.5,239.3h8.7"/>
    <path class="cls-4" d="M121.8,234.9v8.7"/>
  </g>
  <g>
    <path class="cls-4" d="M149.3,233.1c-1,0-1.9.8-1.9,1.9v4.4c0,1,.8,1.9,1.9,1.9s1.9-.8,1.9-1.9v-4.4c0-1-.8-1.9-1.9-1.9Z"/>
    <path class="cls-4" d="M153.6,238.1v1.2c0,2.4-2,4.4-4.4,4.4s-4.4-2-4.4-4.4v-1.2"/>
    <line class="cls-4" x1="149.3" y1="243.7" x2="149.3" y2="245.6"/>
  </g>
  <g>
    <circle class="cls-4" cx="180.1" cy="239.3" r="6.2"/>
    <path class="cls-4" d="M180.1,233.1c-3.3,3.5-3.3,9,0,12.5,3.3-3.5,3.3-9,0-12.5"/>
    <path class="cls-4" d="M173.9,239.3h12.5"/>
  </g>
  <g>
    <path class="cls-3" d="M423.2,245.4c0,.2.2.2.4.2,0,0,.1-.1.2-.2l4.1-11.9c0-.2,0-.3-.2-.4,0,0-.1,0-.2,0l-11.9,4.1c-.2,0-.2.2-.2.4,0,0,0,.2.2.2l4.9,2c.3.1.6.4.7.7l2,5Z"/>
    <path class="cls-3" d="M427.8,233.2l-6.8,6.8"/>
  </g>
</svg>